<svg width="1920" height="2374" viewBox="0 0 1920 2374" fill="none" xmlns="http://www.w3.org/2000/svg">
<g filter="url(#filter0_d)">
<rect x="-4" y="682" width="1923" height="1034" fill="#242A30"/>
</g>
<path d="M128.24 1531.51L17.2304 2025.05L411.427 2000.62M128.24 1531.51L298.152 1590.14M128.24 1531.51L209.798 1289.62M298.152 1590.14L8.16842 2032.38L191.674 1858.91M298.152 1590.14L191.674 1858.91M298.152 1590.14L209.798 1289.62M298.152 1590.14H613.056M298.152 1590.14L517.905 1321.38M191.674 1858.91L613.056 1590.14M191.674 1858.91H685.552M191.674 1858.91L411.427 2000.62M209.798 1289.62L-53 1081.94M209.798 1289.62L191.674 1003.75M209.798 1289.62L384.241 1172.34M209.798 1289.62L517.905 1321.38M-53 1081.94L191.674 1003.75M-53 1081.94L98.7883 495.546M-53 1081.94L479.392 778.969M191.674 1003.75L384.241 1172.34M191.674 1003.75L98.7883 495.546M191.674 1003.75L479.392 778.969M384.241 1172.34L517.905 1321.38M384.241 1172.34L547.357 1081.94M517.905 1321.38L547.357 1081.94M517.905 1321.38L613.056 1590.14M517.905 1321.38L891.712 1392.24M547.357 1081.94L479.392 778.969M547.357 1081.94L694.614 925.567M547.357 1081.94L805.623 1040.4M547.357 1081.94L769.375 1262.74M479.392 778.969L275.497 195.021M479.392 778.969L694.614 578.619M479.392 778.969L461.268 375.825M479.392 778.969L98.7883 495.546M479.392 778.969L694.614 925.567M479.392 778.969H837.34M275.497 195.021L98.7883 495.546M275.497 195.021L12.6994 70.4124L98.7883 495.546M275.497 195.021L529.233 26.433L712.738 275.649M275.497 195.021L461.268 375.825M275.497 195.021L712.738 275.649M98.7883 495.546L694.614 578.619M694.614 578.619L461.268 375.825M694.614 578.619L837.34 778.969M694.614 578.619L712.738 275.649M694.614 578.619L937.022 441.794M461.268 375.825L712.738 275.649M712.738 275.649L937.022 224.34M712.738 275.649L937.022 441.794M712.738 275.649L937.022 2M937.022 224.34V441.794M937.022 224.34V2M937.022 441.794L837.34 778.969M937.022 441.794L1118.26 224.34M937.022 441.794L1159.04 541.969M937.022 441.794L1260.99 361.165M837.34 778.969L694.614 925.567M837.34 778.969L1159.04 541.969M837.34 778.969L912.102 859.598M837.34 778.969L1050.3 732.546M694.614 925.567L805.623 1040.4M694.614 925.567L912.102 859.598M1118.26 224.34L937.022 2M1118.26 224.34L1260.99 361.165M1260.99 361.165L1159.04 541.969M1260.99 361.165L1208.88 661.691M1260.99 361.165L1548.71 456.454L1415.04 541.969M1260.99 361.165L1415.04 541.969M1159.04 541.969L1208.88 661.691M1159.04 541.969L1050.3 732.546M912.102 859.598L1050.3 732.546M912.102 859.598L952.881 1003.75M912.102 859.598L805.623 1040.4M1050.3 732.546L1208.88 661.691M1050.3 732.546L952.881 1003.75M1050.3 732.546L1134.12 808.289M1208.88 661.691L1134.12 808.289M1208.88 661.691L952.881 1003.75M1208.88 661.691L1313.09 967.103M1208.88 661.691L1415.04 541.969M952.881 1003.75L805.623 1040.4M952.881 1003.75L891.712 1108.81M952.881 1003.75L769.375 1262.74M952.881 1003.75L1109.2 1433.77M952.881 1003.75L1313.09 967.103M1134.12 808.289L952.881 1121.03M1134.12 808.289L1034.44 1470.42M1134.12 808.289L1313.09 967.103M1134.12 808.289L1415.04 541.969M1134.12 808.289L1578.16 639.701M952.881 1121.03L1034.44 1470.42M952.881 1121.03L1578.16 639.701M1034.44 1470.42L1109.2 1433.77M1034.44 1470.42L1451.29 1766.06M805.623 1040.4L769.375 1262.74M769.375 1262.74L613.056 1590.14M769.375 1262.74L891.712 1392.24M891.712 1392.24V1108.81M891.712 1392.24L613.056 1590.14M891.712 1392.24L880.385 1560.82M891.712 1392.24L1109.2 1433.77M891.712 1392.24L1088.81 1736.74M891.712 1392.24L1242.86 1766.06M891.712 1108.81L1109.2 1433.77M613.056 1590.14L880.385 1560.82M613.056 1590.14L685.552 1858.91M613.056 1590.14L880.385 1795.38M880.385 1560.82V1795.38M1109.2 1433.77L1313.09 967.103M1109.2 1433.77L1535.11 1196.77M1109.2 1433.77L1516.99 1392.24M1109.2 1433.77L1088.81 1736.74M1109.2 1433.77L1242.86 1766.06M1109.2 1433.77L1451.29 1766.06M1578.16 639.701L1313.09 967.103M1578.16 639.701L1820.57 1040.4M1578.16 639.701L1415.04 541.969M1578.16 639.701L1535.11 1196.77M1313.09 967.103L1516.99 1392.24M1313.09 967.103L1820.57 1040.4M1516.99 1392.24L1809.24 1046.61M1516.99 1392.24L1242.86 1766.06M1516.99 1392.24L1516.06 1397.52M1820.57 1040.4L1809.24 1046.61M1820.57 1040.4L1884 1560.82M1535.11 1196.77L1809.24 1046.61M1535.11 1196.77L1516.06 1397.52M1535.11 1196.77L1884 1560.82M1088.81 1736.74L880.385 1575.48M1088.81 1736.74L873.588 1785.61L1109.2 2025.05M1088.81 1736.74L891.712 2098.35M1088.81 1736.74L1109.2 2025.05M1088.81 1736.74L1211.15 1858.91M1088.81 1736.74L1242.86 1766.06M1088.81 1736.74L1417.63 1893.11M1242.86 1766.06L1417.63 1893.11M1242.86 1766.06H1451.29M1451.29 1766.06L1516.06 1397.52M1451.29 1766.06L1884 1560.82M1451.29 1766.06L1417.63 1893.11M1451.29 1766.06L1586.15 1827.42M1516.06 1397.52L1884 1560.82M1884 1560.82L1777.52 1832.03M1884 1560.82L1596.28 1832.03L1586.15 1827.42M1338.02 2193.64L891.712 2098.35M1338.02 2193.64L1417.63 1893.11M1338.02 2193.64L925.695 2372M1338.02 2193.64L1557.77 1966.41M891.712 2098.35L880.385 1795.38M891.712 2098.35L1109.2 2025.05M891.712 2098.35L685.552 1858.91M891.712 2098.35L925.695 2372M880.385 1795.38L685.552 1858.91M1109.2 2025.05L1211.15 1858.91M1109.2 2025.05L1405.98 1898.1M1109.2 2025.05L1557.77 1966.41M1211.15 1858.91L1417.63 1893.11M1417.63 1893.11L1557.77 1966.41M1417.63 1893.11L1405.98 1898.1M1557.77 1966.41L1777.52 1832.03M1557.77 1966.41L880.385 2098.35L669.694 2078.8M1777.52 1832.03L1586.15 1827.42M1777.52 1832.03L1405.98 1898.1M1586.15 1827.42L1405.98 1898.1M669.694 2078.8L685.552 1858.91M669.694 2078.8L411.427 2000.62M669.694 2078.8L925.695 2372M669.694 2078.8L563.215 2320.69M685.552 1858.91L411.427 2000.62M411.427 2000.62L563.215 2320.69M925.695 2372L563.215 2320.69" stroke="url(#paint0_linear)" stroke-opacity="0.2" stroke-width="2"/>
<g filter="url(#filter1_f)">
<path d="M1803.56 345.709L1595.46 501.211L1657.56 614.563L1727.98 482.903L1803.56 345.709Z" fill="#C9C9C9" fill-opacity="0.35"/>
</g>
<g filter="url(#filter2_f)">
<path d="M1759.43 234.181L1906.99 144.619L1875.6 69.0006L1759.43 234.181Z" fill="#C5C5C5" fill-opacity="0.35"/>
</g>
<g filter="url(#filter3_f)">
<path d="M1449.45 390L1334.15 411.945L1230.37 539.361L1449.45 390Z" fill="#D8D3D3" fill-opacity="0.7"/>
</g>
<g filter="url(#filter4_f)">
<path d="M1398 290.104L1513.72 309.704L1655.39 226.43L1398 290.104Z" fill="#DADADA" fill-opacity="0.4"/>
</g>
<g filter="url(#filter5_f)">
<path d="M1818.2 289.836L1850.89 248.186L1854.05 182.001L1818.2 289.836Z" fill="#B6B6B6" fill-opacity="0.5"/>
</g>
<defs>
<filter id="filter0_d" x="-31" y="661" width="1977" height="1088" filterUnits="userSpaceOnUse" color-interpolation-filters="sRGB">
<feFlood flood-opacity="0" result="BackgroundImageFix"/>
<feColorMatrix in="SourceAlpha" type="matrix" values="0 0 0 0 0 0 0 0 0 0 0 0 0 0 0 0 0 0 127 0"/>
<feOffset dy="6"/>
<feGaussianBlur stdDeviation="13.5"/>
<feColorMatrix type="matrix" values="0 0 0 0 0 0 0 0 0 0 0 0 0 0 0 0 0 0 0.6 0"/>
<feBlend mode="normal" in2="BackgroundImageFix" result="effect1_dropShadow"/>
<feBlend mode="normal" in="SourceGraphic" in2="effect1_dropShadow" result="shape"/>
</filter>
<filter id="filter1_f" x="1576.46" y="326.709" width="246.095" height="306.854" filterUnits="userSpaceOnUse" color-interpolation-filters="sRGB">
<feFlood flood-opacity="0" result="BackgroundImageFix"/>
<feBlend mode="normal" in="SourceGraphic" in2="BackgroundImageFix" result="shape"/>
<feGaussianBlur stdDeviation="9.5" result="effect1_foregroundBlur"/>
</filter>
<filter id="filter2_f" x="1740.43" y="50.0005" width="185.559" height="203.18" filterUnits="userSpaceOnUse" color-interpolation-filters="sRGB">
<feFlood flood-opacity="0" result="BackgroundImageFix"/>
<feBlend mode="normal" in="SourceGraphic" in2="BackgroundImageFix" result="shape"/>
<feGaussianBlur stdDeviation="9.5" result="effect1_foregroundBlur"/>
</filter>
<filter id="filter3_f" x="1220.37" y="380" width="239.084" height="169.36" filterUnits="userSpaceOnUse" color-interpolation-filters="sRGB">
<feFlood flood-opacity="0" result="BackgroundImageFix"/>
<feBlend mode="normal" in="SourceGraphic" in2="BackgroundImageFix" result="shape"/>
<feGaussianBlur stdDeviation="5" result="effect1_foregroundBlur"/>
</filter>
<filter id="filter4_f" x="1390" y="218.43" width="273.394" height="99.2743" filterUnits="userSpaceOnUse" color-interpolation-filters="sRGB">
<feFlood flood-opacity="0" result="BackgroundImageFix"/>
<feBlend mode="normal" in="SourceGraphic" in2="BackgroundImageFix" result="shape"/>
<feGaussianBlur stdDeviation="4" result="effect1_foregroundBlur"/>
</filter>
<filter id="filter5_f" x="1814.2" y="178" width="43.8543" height="115.836" filterUnits="userSpaceOnUse" color-interpolation-filters="sRGB">
<feFlood flood-opacity="0" result="BackgroundImageFix"/>
<feBlend mode="normal" in="SourceGraphic" in2="BackgroundImageFix" result="shape"/>
<feGaussianBlur stdDeviation="2" result="effect1_foregroundBlur"/>
</filter>
<linearGradient id="paint0_linear" x1="915.5" y1="2" x2="915" y2="1682" gradientUnits="userSpaceOnUse">
<stop stop-color="#242A30"/>
<stop offset="0.794792" stop-color="#ECECEC"/>
<stop offset="1" stop-color="#ECECEC" stop-opacity="0"/>
</linearGradient>
</defs>
</svg>
