<svg width="1920" height="1138" viewBox="0 0 1920 1138" fill="none" xmlns="http://www.w3.org/2000/svg">
<g filter="url(#filter0_f)">
<path d="M1334 161.5C1334 165.09 1331.09 168 1327.5 168C1323.91 168 1321 165.09 1321 161.5C1321 157.91 1323.91 155 1327.5 155C1331.09 155 1334 157.91 1334 161.5Z" fill="#31475B" fill-opacity="0.4"/>
<path d="M1137 192.5C1137 196.09 1134.09 199 1130.5 199C1126.91 199 1124 196.09 1124 192.5C1124 188.91 1126.91 186 1130.5 186C1134.09 186 1137 188.91 1137 192.5Z" fill="#31475B" fill-opacity="0.4"/>
<path d="M1227 592C1227 594.761 1224.76 597 1222 597C1219.24 597 1217 594.761 1217 592C1217 589.239 1219.24 587 1222 587C1224.76 587 1227 589.239 1227 592Z" fill="#31475B" fill-opacity="0.4"/>
<path d="M1691 576.5C1691 580.09 1688.09 583 1684.5 583C1680.91 583 1678 580.09 1678 576.5C1678 572.91 1680.91 570 1684.5 570C1688.09 570 1691 572.91 1691 576.5Z" fill="#31475B" fill-opacity="0.4"/>
<path d="M1301 744.5C1301 748.09 1298.09 751 1294.5 751C1290.91 751 1288 748.09 1288 744.5C1288 740.91 1290.91 738 1294.5 738C1298.09 738 1301 740.91 1301 744.5Z" fill="#31475B" fill-opacity="0.4"/>
<path d="M1215 879C1215 881.761 1212.76 884 1210 884C1207.24 884 1205 881.761 1205 879C1205 876.239 1207.24 874 1210 874C1212.76 874 1215 876.239 1215 879Z" fill="#31475B" fill-opacity="0.4"/>
<path d="M1395 951C1395 953.761 1392.76 956 1390 956C1387.24 956 1385 953.761 1385 951C1385 948.239 1387.24 946 1390 946C1392.76 946 1395 948.239 1395 951Z" fill="#31475B" fill-opacity="0.4"/>
<path d="M1620 880C1620 882.761 1617.76 885 1615 885C1612.24 885 1610 882.761 1610 880C1610 877.239 1612.24 875 1615 875C1617.76 875 1620 877.239 1620 880Z" fill="#31475B" fill-opacity="0.4"/>
<path d="M1704 737.5C1704 741.09 1701.09 744 1697.5 744C1693.91 744 1691 741.09 1691 737.5C1691 733.91 1693.91 731 1697.5 731C1701.09 731 1704 733.91 1704 737.5Z" fill="#31475B" fill-opacity="0.4"/>
<path d="M1480 608.5C1480 612.09 1477.09 615 1473.5 615C1469.91 615 1467 612.09 1467 608.5C1467 604.91 1469.91 602 1473.5 602C1477.09 602 1480 604.91 1480 608.5Z" fill="#31475B" fill-opacity="0.4"/>
<path d="M1508 489.5C1508 493.09 1505.09 496 1501.5 496C1497.91 496 1495 493.09 1495 489.5C1495 485.91 1497.91 483 1501.5 483C1505.09 483 1508 485.91 1508 489.5Z" fill="#31475B" fill-opacity="0.4"/>
<path d="M1845 446.5C1845 450.09 1842.09 453 1838.5 453C1834.91 453 1832 450.09 1832 446.5C1832 442.91 1834.91 440 1838.5 440C1842.09 440 1845 442.91 1845 446.5Z" fill="#31475B" fill-opacity="0.4"/>
<path d="M1593 225.5C1593 229.09 1590.09 232 1586.5 232C1582.91 232 1580 229.09 1580 225.5C1580 221.91 1582.91 219 1586.5 219C1590.09 219 1593 221.91 1593 225.5Z" fill="#31475B" fill-opacity="0.4"/>
</g>
<g filter="url(#filter1_f)">
<path d="M1566 519L1423 584L1469 714L1566 519Z" fill="#C1C1C1" fill-opacity="0.4"/>
</g>
<g filter="url(#filter2_f)">
<path d="M1335.76 417.123L1218.2 284.915L1169 308.727L1335.76 417.123Z" fill="#D6D6D6" fill-opacity="0.6"/>
</g>
<g filter="url(#filter3_f)">
<path d="M1832 117L1566 120.972L1649.03 261L1832 117Z" fill="#DEDEDE" fill-opacity="0.4"/>
</g>
<g filter="url(#filter4_f)">
<path d="M1875.35 219.46L1879.19 144.616L1769.81 138.649L1875.35 219.46Z" fill="#B3B3B3" fill-opacity="0.2"/>
</g>
<g filter="url(#filter5_f)">
<path d="M1389.68 455.917L1126.1 440.002L1211.97 377.375L1389.68 455.917Z" fill="#AEAEAE" fill-opacity="0.3"/>
</g>
<g filter="url(#filter6_f)">
<path d="M357.366 276.122L447 13.6551L113.274 32.2122M357.366 276.122L212.901 247.559M357.366 276.122L290.434 405.146M212.901 247.559L454.611 9.65091L300.704 103.972M212.901 247.559L300.704 103.972M212.901 247.559L290.434 405.146M212.901 247.559L-53.8703 252.066M212.901 247.559L29.1372 392.767M300.704 103.972L-53.8703 252.066M300.704 103.972L-117.686 111.042M300.704 103.972L113.274 32.2122M290.434 405.146L534.111 735.789M290.434 405.146L189.976 599.328M290.434 405.146L143.702 469.634M290.434 405.146L29.1372 392.767M534.111 735.789L189.976 599.328M534.111 735.789L391.568 823.287M534.111 735.789L66.6081 678.923M189.976 599.328L143.702 469.634M189.976 599.328L66.6081 678.923M143.702 469.634L6.32574 519.753M29.1372 392.767L6.32574 519.753M29.1372 392.767L-53.8703 252.066M6.32574 519.753L66.6081 678.923M6.32574 519.753L-117.027 604.515M6.32574 519.753L-212.094 545.405M6.32574 519.753L-183.372 427.362M66.6081 678.923L-113.928 787.905M66.6081 678.923L85.5623 891.757M66.6081 678.923L391.568 823.287M66.6081 678.923L-117.027 604.515M66.6081 678.923L-236.628 684.047M244.553 984.668L391.568 823.287M244.553 984.668L468.295 1046.77L391.568 823.287M244.553 984.668L31.1062 1077.41L-126.576 948.307M244.553 984.668L85.5623 891.757M244.553 984.668L-126.576 948.307M-113.928 787.905L85.5623 891.757M-113.928 787.905L-236.628 684.047M-113.928 787.905L-126.576 948.307M-236.628 684.047L-117.027 604.515M-117.027 604.515L-212.094 545.405M-212.094 545.405L-183.372 427.362M-212.094 545.405L-336.516 566.885L-183.372 427.362M-183.372 427.362L-53.8703 252.066M-53.8703 252.066L-117.686 111.042M-53.8703 252.066L-282.171 147.409M-294.473 -12.5722L-282.171 147.409M-294.473 -12.5722L-374.472 52.9636L-276.326 152.477M-294.473 -12.5722L-117.686 111.042M-294.473 -12.5722L-325.705 -156.731M-282.171 147.409L-117.686 111.042M-106.215 -5.4183L-117.686 111.042M-106.215 -5.4183L113.274 32.2122M-106.215 -5.4183L-284.877 -12.7343M-106.215 -5.4183L-325.705 -156.731M-106.215 -5.4183L-18.1721 -134.799M-117.686 111.042L113.274 32.2122M113.274 32.2122L-18.1721 -134.799M-325.705 -156.731L-18.1721 -134.799" stroke="#31475B" stroke-opacity="0.3" stroke-width="3"/>
</g>
<g filter="url(#filter7_f)">
<path d="M1817.5 404L1558 392L1534 519L1674.5 470L1817.5 404Z" fill="#C1C1C1" fill-opacity="0.35"/>
</g>
<g filter="url(#filter8_f)">
<path d="M1545.5 864L1286 852L1262 979L1402.5 930L1545.5 864Z" fill="#C1C1C1" fill-opacity="0.35"/>
</g>
<g filter="url(#filter9_f)">
<path d="M1424.45 738L1309.15 759.944L1205.37 887.36L1424.45 738Z" fill="#C5C5C5" fill-opacity="0.7"/>
</g>
<g filter="url(#filter10_f)">
<path d="M989 887.103L1104.72 906.704L1246.39 823.429L989 887.103Z" fill="#C5C5C5" fill-opacity="0.4"/>
</g>
<g filter="url(#filter11_f)">
<ellipse cx="90.2252" cy="16.6957" rx="9.48583" ry="8.69519" fill="#31475B"/>
</g>
<g filter="url(#filter12_f)">
<circle cx="174.156" cy="137.197" r="15" fill="#31475B"/>
</g>
<g filter="url(#filter13_f)">
<circle cx="117.991" cy="531.813" r="5" fill="#31475B"/>
</g>
<g filter="url(#filter14_f)">
<ellipse cx="182.87" cy="227.989" rx="4.74292" ry="4.34759" fill="#31475B"/>
</g>
<g filter="url(#filter15_f)">
<ellipse cx="263.816" cy="170.601" rx="4.74292" ry="4.34759" fill="#31475B"/>
</g>
<g filter="url(#filter16_f)">
<ellipse cx="316.304" cy="189.15" rx="4.74292" ry="4.34759" fill="#31475B"/>
</g>
<g filter="url(#filter17_f)">
<ellipse cx="437.161" cy="158.899" rx="3.16194" ry="2.8984" fill="#31475B"/>
</g>
<g filter="url(#filter18_f)">
<ellipse cx="277.728" cy="76.6923" rx="4.74292" ry="4.34759" fill="#31475B"/>
</g>
<g filter="url(#filter19_f)">
<ellipse cx="11.809" cy="232.916" rx="15.8097" ry="14.492" fill="#31475B"/>
</g>
<g filter="url(#filter20_f)">
<ellipse cx="57.7422" cy="373.348" rx="4.74292" ry="4.34759" fill="#31475B"/>
</g>
<g filter="url(#filter21_f)">
<ellipse cx="883.503" cy="1060.66" rx="13.5442" ry="11.6099" transform="rotate(-179.797 883.503 1060.66)" fill="#31475B"/>
</g>
<g filter="url(#filter22_f)">
<circle cx="289.526" cy="805.527" r="7.5" transform="rotate(-179.797 289.526 805.527)" fill="#31475B"/>
</g>
<g filter="url(#filter23_f)">
<ellipse cx="816.194" cy="24.6833" rx="19.1283" ry="18.6151" transform="rotate(-179.797 816.194 24.6833)" fill="#31475B"/>
</g>
<g filter="url(#filter24_f)">
<ellipse cx="71.5969" cy="888.342" rx="9.56413" ry="9.30756" transform="rotate(-179.797 71.5969 888.342)" fill="#31475B"/>
</g>
<g filter="url(#filter25_f)">
<ellipse cx="103.597" cy="1019.34" rx="9.56413" ry="9.30756" transform="rotate(-179.797 103.597 1019.34)" fill="#31475B"/>
</g>
<g filter="url(#filter26_f)">
<ellipse cx="919.596" cy="52.3422" rx="9.56413" ry="9.30756" transform="rotate(-179.797 919.596 52.3422)" fill="#31475B"/>
</g>
<g filter="url(#filter27_f)">
<circle cx="338.672" cy="667.139" r="12.5" transform="rotate(-179.797 338.672 667.139)" fill="#31475B"/>
</g>
<g filter="url(#filter28_f)">
<ellipse cx="406.373" cy="80.8656" rx="9.56413" ry="9.30756" transform="rotate(-179.797 406.373 80.8656)" fill="#31475B"/>
</g>
<g filter="url(#filter29_f)">
<ellipse cx="424.597" cy="964.342" rx="9.56413" ry="9.30756" transform="rotate(-179.797 424.597 964.342)" fill="#31475B"/>
</g>
<g filter="url(#filter30_f)">
<ellipse cx="123.139" cy="708.72" rx="16.0767" ry="17.6635" transform="rotate(-179.797 123.139 708.72)" fill="#31475B"/>
</g>
<g filter="url(#filter31_d)">
<path d="M1233 239V303H1169" stroke="#0FDBBB" stroke-width="4"/>
</g>
<g filter="url(#filter32_d)">
<path d="M448 117V53H512" stroke="#0FDBBB" stroke-width="4"/>
</g>
<defs>
<filter id="filter0_f" x="1110" y="141" width="749" height="829" filterUnits="userSpaceOnUse" color-interpolation-filters="sRGB">
<feFlood flood-opacity="0" result="BackgroundImageFix"/>
<feBlend mode="normal" in="SourceGraphic" in2="BackgroundImageFix" result="shape"/>
<feGaussianBlur stdDeviation="7" result="effect1_foregroundBlur"/>
</filter>
<filter id="filter1_f" x="1406" y="502" width="177" height="229" filterUnits="userSpaceOnUse" color-interpolation-filters="sRGB">
<feFlood flood-opacity="0" result="BackgroundImageFix"/>
<feBlend mode="normal" in="SourceGraphic" in2="BackgroundImageFix" result="shape"/>
<feGaussianBlur stdDeviation="8.5" result="effect1_foregroundBlur"/>
</filter>
<filter id="filter2_f" x="1155" y="270.915" width="194.757" height="160.208" filterUnits="userSpaceOnUse" color-interpolation-filters="sRGB">
<feFlood flood-opacity="0" result="BackgroundImageFix"/>
<feBlend mode="normal" in="SourceGraphic" in2="BackgroundImageFix" result="shape"/>
<feGaussianBlur stdDeviation="7" result="effect1_foregroundBlur"/>
</filter>
<filter id="filter3_f" x="1556" y="107" width="286" height="164" filterUnits="userSpaceOnUse" color-interpolation-filters="sRGB">
<feFlood flood-opacity="0" result="BackgroundImageFix"/>
<feBlend mode="normal" in="SourceGraphic" in2="BackgroundImageFix" result="shape"/>
<feGaussianBlur stdDeviation="5" result="effect1_foregroundBlur"/>
</filter>
<filter id="filter4_f" x="1760.81" y="129.648" width="127.386" height="98.8114" filterUnits="userSpaceOnUse" color-interpolation-filters="sRGB">
<feFlood flood-opacity="0" result="BackgroundImageFix"/>
<feBlend mode="normal" in="SourceGraphic" in2="BackgroundImageFix" result="shape"/>
<feGaussianBlur stdDeviation="4.5" result="effect1_foregroundBlur"/>
</filter>
<filter id="filter5_f" x="1104.1" y="355.375" width="307.584" height="122.542" filterUnits="userSpaceOnUse" color-interpolation-filters="sRGB">
<feFlood flood-opacity="0" result="BackgroundImageFix"/>
<feBlend mode="normal" in="SourceGraphic" in2="BackgroundImageFix" result="shape"/>
<feGaussianBlur stdDeviation="11" result="effect1_foregroundBlur"/>
</filter>
<filter id="filter6_f" x="-391.695" y="-173.37" width="942.983" height="1267.52" filterUnits="userSpaceOnUse" color-interpolation-filters="sRGB">
<feFlood flood-opacity="0" result="BackgroundImageFix"/>
<feBlend mode="normal" in="SourceGraphic" in2="BackgroundImageFix" result="shape"/>
<feGaussianBlur stdDeviation="7.5" result="effect1_foregroundBlur"/>
</filter>
<filter id="filter7_f" x="1515" y="373" width="321.5" height="165" filterUnits="userSpaceOnUse" color-interpolation-filters="sRGB">
<feFlood flood-opacity="0" result="BackgroundImageFix"/>
<feBlend mode="normal" in="SourceGraphic" in2="BackgroundImageFix" result="shape"/>
<feGaussianBlur stdDeviation="9.5" result="effect1_foregroundBlur"/>
</filter>
<filter id="filter8_f" x="1243" y="833" width="321.5" height="165" filterUnits="userSpaceOnUse" color-interpolation-filters="sRGB">
<feFlood flood-opacity="0" result="BackgroundImageFix"/>
<feBlend mode="normal" in="SourceGraphic" in2="BackgroundImageFix" result="shape"/>
<feGaussianBlur stdDeviation="9.5" result="effect1_foregroundBlur"/>
</filter>
<filter id="filter9_f" x="1195.37" y="728" width="239.084" height="169.36" filterUnits="userSpaceOnUse" color-interpolation-filters="sRGB">
<feFlood flood-opacity="0" result="BackgroundImageFix"/>
<feBlend mode="normal" in="SourceGraphic" in2="BackgroundImageFix" result="shape"/>
<feGaussianBlur stdDeviation="5" result="effect1_foregroundBlur"/>
</filter>
<filter id="filter10_f" x="981" y="815.429" width="273.394" height="99.2743" filterUnits="userSpaceOnUse" color-interpolation-filters="sRGB">
<feFlood flood-opacity="0" result="BackgroundImageFix"/>
<feBlend mode="normal" in="SourceGraphic" in2="BackgroundImageFix" result="shape"/>
<feGaussianBlur stdDeviation="4" result="effect1_foregroundBlur"/>
</filter>
<filter id="filter11_f" x="65.7394" y="-6.99951" width="48.9717" height="47.3904" filterUnits="userSpaceOnUse" color-interpolation-filters="sRGB">
<feFlood flood-opacity="0" result="BackgroundImageFix"/>
<feBlend mode="normal" in="SourceGraphic" in2="BackgroundImageFix" result="shape"/>
<feGaussianBlur stdDeviation="7.5" result="effect1_foregroundBlur"/>
</filter>
<filter id="filter12_f" x="129.156" y="92.1973" width="90" height="90" filterUnits="userSpaceOnUse" color-interpolation-filters="sRGB">
<feFlood flood-opacity="0" result="BackgroundImageFix"/>
<feBlend mode="normal" in="SourceGraphic" in2="BackgroundImageFix" result="shape"/>
<feGaussianBlur stdDeviation="15" result="effect1_foregroundBlur"/>
</filter>
<filter id="filter13_f" x="92.9912" y="506.813" width="50" height="50" filterUnits="userSpaceOnUse" color-interpolation-filters="sRGB">
<feFlood flood-opacity="0" result="BackgroundImageFix"/>
<feBlend mode="normal" in="SourceGraphic" in2="BackgroundImageFix" result="shape"/>
<feGaussianBlur stdDeviation="10" result="effect1_foregroundBlur"/>
</filter>
<filter id="filter14_f" x="158.127" y="203.641" width="49.4858" height="48.6952" filterUnits="userSpaceOnUse" color-interpolation-filters="sRGB">
<feFlood flood-opacity="0" result="BackgroundImageFix"/>
<feBlend mode="normal" in="SourceGraphic" in2="BackgroundImageFix" result="shape"/>
<feGaussianBlur stdDeviation="10" result="effect1_foregroundBlur"/>
</filter>
<filter id="filter15_f" x="247.073" y="154.253" width="33.4858" height="32.6952" filterUnits="userSpaceOnUse" color-interpolation-filters="sRGB">
<feFlood flood-opacity="0" result="BackgroundImageFix"/>
<feBlend mode="normal" in="SourceGraphic" in2="BackgroundImageFix" result="shape"/>
<feGaussianBlur stdDeviation="6" result="effect1_foregroundBlur"/>
</filter>
<filter id="filter16_f" x="301.561" y="174.803" width="29.4858" height="28.6952" filterUnits="userSpaceOnUse" color-interpolation-filters="sRGB">
<feFlood flood-opacity="0" result="BackgroundImageFix"/>
<feBlend mode="normal" in="SourceGraphic" in2="BackgroundImageFix" result="shape"/>
<feGaussianBlur stdDeviation="5" result="effect1_foregroundBlur"/>
</filter>
<filter id="filter17_f" x="418.999" y="141" width="36.3239" height="35.7968" filterUnits="userSpaceOnUse" color-interpolation-filters="sRGB">
<feFlood flood-opacity="0" result="BackgroundImageFix"/>
<feBlend mode="normal" in="SourceGraphic" in2="BackgroundImageFix" result="shape"/>
<feGaussianBlur stdDeviation="7.5" result="effect1_foregroundBlur"/>
</filter>
<filter id="filter18_f" x="252.986" y="52.3447" width="49.4858" height="48.6952" filterUnits="userSpaceOnUse" color-interpolation-filters="sRGB">
<feFlood flood-opacity="0" result="BackgroundImageFix"/>
<feBlend mode="normal" in="SourceGraphic" in2="BackgroundImageFix" result="shape"/>
<feGaussianBlur stdDeviation="10" result="effect1_foregroundBlur"/>
</filter>
<filter id="filter19_f" x="-64.0007" y="158.424" width="151.619" height="148.984" filterUnits="userSpaceOnUse" color-interpolation-filters="sRGB">
<feFlood flood-opacity="0" result="BackgroundImageFix"/>
<feBlend mode="normal" in="SourceGraphic" in2="BackgroundImageFix" result="shape"/>
<feGaussianBlur stdDeviation="30" result="effect1_foregroundBlur"/>
</filter>
<filter id="filter20_f" x="42.9993" y="359" width="29.4858" height="28.6952" filterUnits="userSpaceOnUse" color-interpolation-filters="sRGB">
<feFlood flood-opacity="0" result="BackgroundImageFix"/>
<feBlend mode="normal" in="SourceGraphic" in2="BackgroundImageFix" result="shape"/>
<feGaussianBlur stdDeviation="5" result="effect1_foregroundBlur"/>
</filter>
<filter id="filter21_f" x="838.959" y="1018.05" width="89.0884" height="85.2198" filterUnits="userSpaceOnUse" color-interpolation-filters="sRGB">
<feFlood flood-opacity="0" result="BackgroundImageFix"/>
<feBlend mode="normal" in="SourceGraphic" in2="BackgroundImageFix" result="shape"/>
<feGaussianBlur stdDeviation="15.5" result="effect1_foregroundBlur"/>
</filter>
<filter id="filter22_f" x="259.026" y="775.027" width="61" height="61" filterUnits="userSpaceOnUse" color-interpolation-filters="sRGB">
<feFlood flood-opacity="0" result="BackgroundImageFix"/>
<feBlend mode="normal" in="SourceGraphic" in2="BackgroundImageFix" result="shape"/>
<feGaussianBlur stdDeviation="11.5" result="effect1_foregroundBlur"/>
</filter>
<filter id="filter23_f" x="755.066" y="-35.9316" width="122.257" height="121.23" filterUnits="userSpaceOnUse" color-interpolation-filters="sRGB">
<feFlood flood-opacity="0" result="BackgroundImageFix"/>
<feBlend mode="normal" in="SourceGraphic" in2="BackgroundImageFix" result="shape"/>
<feGaussianBlur stdDeviation="21" result="effect1_foregroundBlur"/>
</filter>
<filter id="filter24_f" x="29.0328" y="846.034" width="85.1283" height="84.6151" filterUnits="userSpaceOnUse" color-interpolation-filters="sRGB">
<feFlood flood-opacity="0" result="BackgroundImageFix"/>
<feBlend mode="normal" in="SourceGraphic" in2="BackgroundImageFix" result="shape"/>
<feGaussianBlur stdDeviation="16.5" result="effect1_foregroundBlur"/>
</filter>
<filter id="filter25_f" x="73.0328" y="989.034" width="61.1283" height="60.6151" filterUnits="userSpaceOnUse" color-interpolation-filters="sRGB">
<feFlood flood-opacity="0" result="BackgroundImageFix"/>
<feBlend mode="normal" in="SourceGraphic" in2="BackgroundImageFix" result="shape"/>
<feGaussianBlur stdDeviation="10.5" result="effect1_foregroundBlur"/>
</filter>
<filter id="filter26_f" x="891.032" y="24.0347" width="57.1283" height="56.6151" filterUnits="userSpaceOnUse" color-interpolation-filters="sRGB">
<feFlood flood-opacity="0" result="BackgroundImageFix"/>
<feBlend mode="normal" in="SourceGraphic" in2="BackgroundImageFix" result="shape"/>
<feGaussianBlur stdDeviation="9.5" result="effect1_foregroundBlur"/>
</filter>
<filter id="filter27_f" x="294.172" y="622.639" width="89" height="89" filterUnits="userSpaceOnUse" color-interpolation-filters="sRGB">
<feFlood flood-opacity="0" result="BackgroundImageFix"/>
<feBlend mode="normal" in="SourceGraphic" in2="BackgroundImageFix" result="shape"/>
<feGaussianBlur stdDeviation="16" result="effect1_foregroundBlur"/>
</filter>
<filter id="filter28_f" x="381.809" y="56.5581" width="49.1283" height="48.6151" filterUnits="userSpaceOnUse" color-interpolation-filters="sRGB">
<feFlood flood-opacity="0" result="BackgroundImageFix"/>
<feBlend mode="normal" in="SourceGraphic" in2="BackgroundImageFix" result="shape"/>
<feGaussianBlur stdDeviation="7.5" result="effect1_foregroundBlur"/>
</filter>
<filter id="filter29_f" x="386.033" y="926.034" width="77.1283" height="76.6151" filterUnits="userSpaceOnUse" color-interpolation-filters="sRGB">
<feFlood flood-opacity="0" result="BackgroundImageFix"/>
<feBlend mode="normal" in="SourceGraphic" in2="BackgroundImageFix" result="shape"/>
<feGaussianBlur stdDeviation="14.5" result="effect1_foregroundBlur"/>
</filter>
<filter id="filter30_f" x="47.0619" y="631.057" width="152.153" height="155.327" filterUnits="userSpaceOnUse" color-interpolation-filters="sRGB">
<feFlood flood-opacity="0" result="BackgroundImageFix"/>
<feBlend mode="normal" in="SourceGraphic" in2="BackgroundImageFix" result="shape"/>
<feGaussianBlur stdDeviation="30" result="effect1_foregroundBlur"/>
</filter>
<filter id="filter31_d" x="1158" y="228" width="88" height="88" filterUnits="userSpaceOnUse" color-interpolation-filters="sRGB">
<feFlood flood-opacity="0" result="BackgroundImageFix"/>
<feColorMatrix in="SourceAlpha" type="matrix" values="0 0 0 0 0 0 0 0 0 0 0 0 0 0 0 0 0 0 127 0"/>
<feOffset/>
<feGaussianBlur stdDeviation="5.5"/>
<feColorMatrix type="matrix" values="0 0 0 0 0.0588235 0 0 0 0 0.858824 0 0 0 0 0.733333 0 0 0 1 0"/>
<feBlend mode="normal" in2="BackgroundImageFix" result="effect1_dropShadow"/>
<feBlend mode="normal" in="SourceGraphic" in2="effect1_dropShadow" result="shape"/>
</filter>
<filter id="filter32_d" x="435" y="44" width="88" height="88" filterUnits="userSpaceOnUse" color-interpolation-filters="sRGB">
<feFlood flood-opacity="0" result="BackgroundImageFix"/>
<feColorMatrix in="SourceAlpha" type="matrix" values="0 0 0 0 0 0 0 0 0 0 0 0 0 0 0 0 0 0 127 0"/>
<feOffset dy="4"/>
<feGaussianBlur stdDeviation="5.5"/>
<feColorMatrix type="matrix" values="0 0 0 0 0.0588235 0 0 0 0 0.858824 0 0 0 0 0.733333 0 0 0 1 0"/>
<feBlend mode="normal" in2="BackgroundImageFix" result="effect1_dropShadow"/>
<feBlend mode="normal" in="SourceGraphic" in2="effect1_dropShadow" result="shape"/>
</filter>
</defs>
</svg>
