<svg width="1621" height="1161" viewBox="0 0 1621 1161" fill="none" xmlns="http://www.w3.org/2000/svg">
<g filter="url(#filter0_d)">
<path d="M732.125 426.667C732.125 426.667 722.125 441.167 728.625 444.667C735.125 448.167 747.625 438.167 747.625 438.167L750.625 426.667C750.625 426.667 756.625 426.667 754.125 419.667C751.625 412.667 744.625 419.667 744.625 419.667L741.125 426.667H732.125ZM763.625 448.167C763.625 448.167 754.125 448.167 750.625 444.667C747.125 441.167 756.625 437.167 756.625 437.167L763.625 433.667L771.625 429.667L767.125 419.667L756.625 415.167L754.125 408.167C754.125 408.167 747.625 400.667 747.625 395.167C747.625 389.667 756.625 392.167 756.625 392.167C756.625 392.167 767.125 386.167 767.125 392.167C767.125 398.167 767.125 398.167 767.125 398.167C767.125 398.167 767.125 405.667 771.625 412.667C776.125 419.667 783.125 426.667 783.125 426.667C783.125 426.667 788.625 430.667 788.625 438.167C788.625 445.667 780.625 445.667 780.625 445.667L771.625 448.167L754.125 456.167L755.125 450.667L763.625 448.167ZM767.125 456.167C758.125 456.167 767.125 466.667 767.125 466.667C767.125 466.667 756.125 460.167 755.125 466.667C754.125 473.167 756.625 470.167 756.625 470.167L767.125 475.667C767.125 475.667 773.625 488.667 767.125 497.667C760.625 506.667 738.125 497.167 735.125 502.167C732.125 507.167 729.125 531.167 732.125 535.167C735.125 539.167 744.625 542.667 744.625 542.667C744.625 542.667 744.625 551.667 750.625 551.667C756.625 551.667 767.125 547.167 767.125 547.167H776.125L780.625 531.667L788.625 522.667L795.125 515.167C795.125 515.167 790.125 512.167 795.125 507.167C800.125 502.167 811.125 507.167 811.125 507.167H816.625C816.625 507.167 821.625 495.167 825.125 497.667C828.625 500.167 839.125 512.167 839.125 512.167L850.625 522.667L859.625 535.167V542.667L864.625 535.167L862.625 525.167L867.625 531.667L872.625 528.167L867.625 522.667L855.125 515.167L847.625 502.167L839.125 497.667L847.625 493.667L855.125 497.667L867.625 507.167V515.167L877.625 512.167V525.167L885.125 528.167L877.625 531.667L888.625 535.167L892.625 539.167V531.667L900.625 525.167V522.667L910.125 528.167L915.625 522.667H918.625L921.125 516.667L918.625 512.167V507.167V497.667L925.125 488.667H936.625L939.625 493.667H951.625V485.667C951.625 485.667 951.625 479.667 959.125 475.667C966.625 471.667 961.125 473.667 965.125 479.667C969.125 485.667 959.125 485.667 959.125 485.667L954.625 488.667L965.125 493.667L975.125 502.167C975.125 502.167 986.125 500.167 986.625 507.167C987.125 514.167 984.625 515.167 980.125 516.667C975.625 518.167 971.625 512.167 971.625 512.167H946.625C946.625 512.167 936.625 510.667 936.625 516.667C936.625 522.667 936.625 525.167 936.625 525.167L925.125 522.667L918.625 528.167L914.625 538.167L918.625 547.167L929.625 553.667L938.625 554.667L948.625 557.167L959.125 554.667V563.667V576.667L951.625 584.167H943.625L939.625 581.167L929.625 584.167H918.625H911.625C911.625 584.167 907.625 578.667 900.625 576.667C893.625 574.667 890.625 576.667 890.625 576.667H883.625C883.625 576.667 881.125 588.167 875.625 587.667C870.125 587.167 866.125 584.167 866.125 584.167L858.125 581.167L843.125 572.167L833.625 570.167L830.125 560.667C830.125 560.667 836.625 554.667 833.625 547.167C830.625 539.667 825.125 542.667 825.125 542.667L811.125 547.167H805.125L796.125 548.167H783.125L773.625 551.667L771.625 557.167H754.125L741.125 568.167L732.125 581.167L724.625 594.667L708.125 618.667C708.125 618.667 690.625 631.167 690.625 639.667C690.625 648.167 694.125 658.667 694.125 658.667C694.125 658.667 697.125 665.167 695.625 671.667C694.125 678.167 690.625 671.667 690.625 683.667C690.625 695.667 694.125 695.667 694.125 695.667L711.625 714.167L713.625 721.667L723.125 728.667C723.125 728.667 732.125 741.167 741.125 745.167C750.125 749.167 750.625 743.667 750.625 743.667C750.625 743.667 750.625 733.167 758.125 736.167C765.625 739.167 764.625 741.167 764.625 741.167L780.625 740.204C780.625 740.204 780.625 733.667 790.125 731.167C799.625 728.667 799.125 735.167 805.125 733.167C811.125 731.167 813.125 743.667 813.125 743.667C813.125 743.667 826.625 741.667 830.125 748.167C833.625 754.667 821.125 767.667 825.625 774.167C830.125 780.667 836.625 794.167 836.625 794.167L844.625 805.667C844.459 809.833 844.725 818.267 847.125 818.667C849.525 819.067 851.459 827.833 852.125 832.167C852.125 832.167 841.625 851.167 841.625 858.167C841.625 865.167 841.625 873.667 841.625 873.667L854.125 900.667V917.667L869.625 945.167L872.125 954.167C872.125 954.167 866.125 959.167 872.125 966.167C878.125 973.167 891.625 973.167 891.625 973.167L913.125 966.167H920.125L930.125 957.167C930.125 957.167 940.125 948.667 944.125 941.667C948.125 934.667 945.625 928.167 945.625 928.167C945.625 928.167 960.125 919.667 963.625 912.167C967.125 904.667 961.125 889.667 965.125 881.667C969.125 873.667 989.625 859.667 989.625 859.667L991.625 843.667C991.625 843.667 984.625 802.667 988.125 794.167C991.625 785.667 1014.13 763.167 1014.13 763.167L1039.63 731.167C1039.63 731.167 1051.13 714.167 1048.13 704.667C1045.13 695.167 1020.13 706.167 1020.13 706.167C1020.13 706.167 1007.13 704.667 1003.63 695.667C1000.13 686.667 1003.63 688.167 1003.63 688.167L984.625 671.667L977.125 654.167L969.125 635.667C969.125 635.667 948.625 609.167 953.625 604.667C958.625 600.167 962.125 593.167 960.625 601.167C959.125 609.167 973.625 631.667 979.125 635.667C984.625 639.667 1007.13 678.167 1007.13 678.167C1007.13 678.167 1017.13 698.167 1024.63 695.667C1032.13 693.167 1048.77 686.822 1062.63 678.167C1074.65 670.654 1091.13 663.667 1091.13 655.667C1091.13 647.667 1086.13 642.667 1086.13 642.667L1070.63 628.167L1046.13 626.167L1044.13 621.667L1037.63 612.167L1024.63 598.167L1031.63 601.167C1031.63 601.167 1033.13 589.167 1039.63 595.167C1046.13 601.167 1051.13 609.167 1051.13 609.167L1062.63 616.667L1072.13 612.167L1080.13 619.167L1102.13 621.667L1108.13 626.167C1108.13 626.167 1124.13 615.167 1126.13 621.667C1128.13 628.167 1141.63 651.667 1149.13 653.667C1156.63 655.667 1152.13 641.167 1156.63 644.167C1161.13 647.167 1169.13 688.167 1169.13 688.167C1169.13 688.167 1178.63 714.167 1184.63 718.667C1190.63 723.167 1194.63 715.667 1194.63 715.667L1198.63 692.167C1198.63 692.167 1205.13 670.667 1214.13 667.667C1223.13 664.667 1234.63 650.667 1234.63 650.667L1240.13 638.667C1240.13 638.667 1244.63 647.167 1250.13 647.167C1255.63 647.167 1250.13 633.367 1250.13 634.167C1250.13 634.967 1265.79 656.833 1273.63 667.667C1273.63 667.667 1269.63 675.167 1275.63 678.667C1281.63 682.167 1288.63 678.667 1288.63 678.667L1299.13 703.667C1299.13 703.667 1292.63 712.667 1299.13 714.167C1305.63 715.667 1312.63 697.667 1312.63 697.667L1325.13 709.667C1326.46 710.667 1329.43 713.267 1330.63 715.667C1332.13 718.667 1330.13 723.667 1336.13 721.667C1342.13 719.667 1355.13 714.167 1355.13 703.667C1355.13 693.167 1348.13 685.667 1348.13 685.667L1336.13 660.667L1339.13 650.667L1349.63 647.167H1361.13L1371.63 638.667C1376.46 638 1386.13 636.167 1386.13 634.167C1386.13 632.167 1392.46 621 1395.63 615.667L1406.13 589.167L1401.63 584.167V579.667L1393.63 572.667H1404.13L1393.63 563.167L1386.13 546.667C1386.13 546.667 1398.63 538.167 1401.63 531.667C1404.63 525.167 1386.13 533.167 1386.13 533.167C1386.13 533.167 1374.63 533.167 1371.63 527.167C1368.63 521.167 1377.63 518.667 1377.63 518.667C1377.63 518.667 1381.63 507.167 1387.63 507.167C1393.63 507.167 1387.63 524.667 1387.63 524.667L1398.63 514.167L1411.13 516.167C1411.13 516.167 1405.63 524.167 1412.63 527.167C1419.63 530.167 1422.63 527.167 1422.63 527.167L1416.63 533.167H1422.63C1422.63 533.167 1414.13 558.667 1422.63 556.667C1431.13 554.667 1437.13 545.667 1444.63 539.667C1452.13 533.667 1429.13 518.667 1424.63 518.667C1420.13 518.667 1424.63 503.667 1424.63 503.667C1424.63 503.667 1429.13 502.167 1431.13 496.167C1433.13 490.167 1433.13 484.667 1433.13 484.667C1433.13 484.667 1440.45 483.868 1448.63 480.167C1456.8 476.465 1459.13 455.667 1456.13 451.167C1453.13 446.667 1459.13 429.667 1459.13 429.667L1452.63 395.167L1444.63 379.667L1433.13 372.667C1433.13 372.667 1441.63 387.667 1433.13 383.667C1424.63 379.667 1424.63 375.167 1424.63 375.167C1424.63 375.167 1422.63 364.167 1426.63 355.667C1430.63 347.167 1424.63 328.167 1429.13 323.667C1433.63 319.167 1454.63 315.667 1454.63 315.667L1462.63 312.667C1462.63 312.667 1453.43 301.362 1459.13 306.667C1464.82 311.971 1465.63 312.667 1474.13 306.667C1482.63 300.667 1469.13 307.667 1474.13 312.667C1479.13 317.666 1492.63 304.667 1492.63 304.667L1490.13 298.167H1484.13L1486.63 272.167C1486.63 272.167 1495.13 264.167 1492.63 272.167C1490.13 280.167 1500.13 280.167 1500.13 280.167C1500.13 280.167 1503.63 284.166 1506.13 280.167C1508.63 276.167 1509.13 267.667 1509.13 267.667V261.167C1509.13 261.167 1521.63 262.167 1516.13 269.667C1510.63 277.167 1510.63 298.167 1510.63 298.167L1506.13 323.667C1505.63 326.833 1503.13 324.667 1506.13 338.667C1509.13 352.667 1516.96 367.833 1521.63 379.667C1521.63 379.667 1529.13 397.667 1536.63 395.167C1544.13 392.667 1540.63 358.667 1540.63 358.667L1545.13 352.667L1543.13 344.167C1543.13 344.167 1543.13 333.166 1540.63 323.667C1538.13 314.167 1521.63 295.667 1521.63 295.667L1529.13 280.167L1534.63 284.667L1540.63 277.167C1540.63 277.167 1545.13 280.167 1554.13 277.167C1563.13 274.167 1552.13 267.667 1554.13 261.167C1556.13 254.667 1566.13 255.167 1566.13 249.167C1566.13 243.167 1554.13 229.167 1566.13 231.667C1578.13 234.166 1573.13 240.167 1575.13 231.667C1577.13 223.167 1563.13 222.667 1563.13 222.667L1561.13 214.167C1561.13 214.167 1552.13 214.167 1545.13 205.667C1538.13 197.167 1555.63 208.667 1555.63 208.667L1559.63 195.167C1559.63 195.167 1549.13 181.167 1552.13 176.167C1555.13 171.167 1566.13 192.667 1566.13 192.667C1566.13 192.667 1566.13 195.167 1575.13 192.667C1584.13 190.167 1590.63 198.667 1590.63 198.667C1590.63 198.667 1595.63 204.667 1599.63 198.667C1603.63 192.667 1585.13 184.667 1585.13 184.667C1585.13 184.667 1590.63 173.167 1589.13 165.167C1587.63 157.167 1575.13 161.167 1575.13 161.167C1575.13 161.167 1571.13 157.167 1566.13 161.167C1561.13 165.167 1573.13 168.667 1573.13 168.667L1545.13 149.167L1529.13 143.167H1514.13L1492.63 136.167C1492.63 136.167 1475.63 135.667 1474.13 140.667C1472.63 145.667 1481.63 154.167 1481.63 154.167L1476.13 157.667C1476.13 157.667 1472.13 141.167 1465.63 145.667C1459.13 150.167 1465.63 157.667 1465.63 157.667C1465.63 157.667 1453.63 151.667 1453.13 157.667C1452.63 163.667 1445.13 165.167 1445.13 165.167H1436.63L1426.63 157.667C1426.63 157.667 1416.63 149.667 1411.63 147.167C1406.63 144.667 1402.63 154.167 1402.63 154.167C1402.63 154.167 1397.63 159.667 1388.63 157.667C1379.63 155.667 1380.13 154.167 1380.13 154.167C1380.13 154.167 1373.63 154.167 1369.63 145.667C1365.63 137.167 1360.13 145.667 1360.13 145.667C1357.29 145.5 1352.03 145.567 1353.63 147.167C1355.23 148.767 1362.63 155.666 1357.63 156.167C1352.63 156.667 1348.13 145.667 1348.13 145.667L1337.13 149.167C1335.29 148.5 1330.81 140.167 1330.13 147.167C1329.44 154.167 1332.29 151.833 1334.13 154.167C1334.13 154.167 1326.13 150.667 1330.13 159.667C1334.13 168.667 1337.13 163.667 1337.13 163.667L1334.13 171.167C1334.13 171.167 1344.13 181.167 1337.13 181.167C1330.13 181.167 1330.13 171.167 1330.13 171.167L1323.63 175.667V178.167L1315.13 175.667C1315.13 175.667 1314.13 168.167 1308.13 173.167C1302.13 178.167 1313.13 178.167 1313.13 178.167C1313.13 178.167 1315.13 178.667 1311.63 184.167C1308.13 189.667 1302.13 181.167 1302.13 181.167L1296.63 178.167H1292.63C1292.63 178.167 1289.13 171.167 1284.63 163.667C1280.13 156.167 1273.63 156.167 1265.13 159.667C1256.63 163.167 1258.13 163.667 1258.13 163.667C1258.13 163.667 1261.13 164.167 1261.13 171.167C1261.13 178.167 1253.13 171.167 1253.13 171.167L1243.13 173.167L1222.63 171.167L1213.13 173.167L1208.63 168.667C1208.63 168.667 1201.63 164.167 1203.63 171.167C1205.63 178.167 1205.63 178.167 1205.63 178.167L1198.13 194.667C1198.13 194.667 1187.63 203.166 1180.13 204.667C1172.63 206.167 1196.13 192.167 1197.13 185.167C1198.13 178.167 1197.13 173.167 1197.13 173.167C1197.13 173.167 1201.13 161.666 1205.63 154.167C1210.13 146.667 1198.13 144.667 1198.13 144.667C1198.13 144.667 1197.13 129.667 1190.63 132.167C1184.13 134.667 1184.13 134.667 1184.13 134.667C1184.13 134.667 1183.63 126.667 1176.13 128.167C1168.63 129.667 1172.63 131.667 1172.13 138.167C1171.63 144.667 1161.13 129.667 1161.13 129.667V121.667C1161.13 121.667 1151.13 121.167 1146.63 118.667C1142.13 116.167 1146.63 134.667 1150.13 138.167C1153.63 141.667 1153.13 144.667 1153.13 144.667L1148.13 150.167L1139.13 154.167L1137.13 157.667C1137.13 157.667 1131.13 150.167 1129.13 156.167C1127.13 162.167 1122.63 157.667 1126.63 163.667C1130.63 169.667 1118.13 168.667 1118.13 168.667L1109.63 178.167C1109.63 178.167 1112.13 183.667 1107.63 189.667C1103.13 195.667 1118.13 199.167 1118.13 199.167C1118.13 199.167 1109.63 204.667 1105.63 199.167C1101.63 193.667 1097.63 209.667 1097.63 209.667C1097.63 209.667 1107.63 222.167 1107.63 227.167C1107.63 232.167 1089.13 218.167 1089.13 218.167L1088.13 228.167L1089.13 235.667V240.167L1083.63 242.167L1086.63 225.667L1081.63 221.667L1079.63 228.167L1081.63 244.667C1083.29 250.167 1086.63 261.467 1086.63 262.667C1086.63 263.867 1089.96 270.167 1091.63 273.167C1092.96 276.167 1095.23 282.367 1093.63 283.167C1092.03 283.967 1086.63 298.667 1079.63 298.667C1072.63 298.667 1085.63 282.167 1085.63 282.167L1076.13 254.667L1069.13 244.667V235.667L1065.13 221.667L1059.63 218.167C1056.29 221.667 1049.83 229.367 1050.63 232.167C1051.43 234.967 1054.63 248.333 1056.13 254.667L1059.63 267.667L1065.13 275.167L1056.13 278.167L1045.63 270.667L1037.13 267.667L1027.63 262.667L1020.13 259.167L1021.63 267.667L1033.13 273.167V282.167L1027.63 278.167L1017.63 280.667L1010.13 286.667L1004.13 294.667C1004.13 294.667 1012.63 281.167 1004.13 278.167C995.625 275.167 1001.13 284.667 1001.13 284.667H995.625L988.625 294.667L979.125 298.667V307.667L975.125 294.667C975.125 294.667 965.625 284.667 963.125 289.667C960.625 294.667 966.625 298.667 966.625 298.667L971.125 310.167L960.625 313.167L951.625 322.167V328.167L946.125 332.167L940.625 328.167H933.625L928.625 315.667C928.625 315.667 915.625 315.667 916.125 307.667C916.625 299.667 940.625 313.167 940.625 313.167C940.625 313.167 948.625 315.667 949.125 310.167C949.625 304.667 949.125 303.667 949.125 298.667C949.125 293.667 938.625 292.167 938.625 292.167C938.625 292.167 933.625 284.667 927.125 282.167C920.625 279.667 918.125 284.667 918.125 284.667L910.625 275.167H896.625L884.625 267.667L878.125 270.667L871.625 273.167L863.625 278.167L860.625 282.167V284.667L850.625 292.167L843.125 303.667H838.625L835.625 317.667L833.125 332.167L827.125 328.167L828.625 338.667L817.625 347.167L807.125 355.667L812.125 364.167C810.459 366.167 807.125 370.467 807.125 371.667C807.125 372.867 808.792 381.833 809.625 386.167L813.625 389.167L827.125 383.667C827.125 383.667 827.625 374.667 833.125 379.167C838.625 383.667 835.625 389.167 835.625 389.167V400.667C835.625 400.667 838.625 412.667 843.125 412.667C847.625 412.667 850.125 406.667 854.125 403.667C858.125 400.667 860.625 377.667 860.625 377.667L856.625 360.667C856.625 360.667 862.625 342.167 867.125 335.667C871.625 329.167 884.625 319.667 884.625 319.667C884.625 319.667 884.625 316.167 888.625 322.167C892.625 328.167 887.025 335.967 884.625 337.167C881.625 338.667 878.125 350.667 878.125 353.167C878.125 355.167 878.125 363.667 878.125 367.667L895.125 371.667C895.125 371.667 916.125 359.667 913.125 371.667C910.125 383.667 890.625 377.667 890.625 377.667L888.625 389.167L895.125 392.167L888.625 400.667L878.125 398.167L877.125 407.167L871.625 415.167L870.125 423.167L860.625 419.667L854.125 421.167H828.625C828.625 421.167 826.625 429.667 820.125 428.167C813.625 426.667 809.125 425.667 807.125 429.667C805.125 433.667 808.125 435.167 805.125 441.667C802.125 448.167 801.625 443.667 795.125 444.667C788.625 445.667 788.625 452.167 788.625 452.167L780.625 464.167C780.625 464.167 776.125 456.167 767.125 456.167ZM827.125 398.167C827.125 398.167 813.625 399.167 813.625 407.167C813.625 415.167 823.625 415.167 823.625 415.167C823.625 415.167 823.625 415.167 828.625 410.167C833.625 405.167 827.125 398.167 827.125 398.167ZM893.125 262.667V270.667L907.125 267.667L901.125 262.667H893.125ZM986.625 230.167H993.625L1001.13 235.667V247.667L1010.13 257.167L1004.13 262.667L997.625 259.167L995.625 252.667H988.625L984.125 242.167L986.625 230.167ZM990.125 197.667C981.125 206.167 990.125 208.667 990.125 208.667L984.125 218.167L992.125 225.667C992.125 225.667 991.125 230.667 997.625 228.167C1004.13 225.667 1001.13 212.667 1001.13 212.667L1012.13 192.667L1027.63 177.667C1027.63 177.667 1033.13 163.667 1027.63 164.667C1022.13 165.667 1017.63 169.167 1017.63 169.167L1012.13 180.667H1007.13L999.125 197.667C999.125 197.667 999.125 189.167 990.125 197.667ZM883.625 545.667L890.625 542.667L896.625 548.167L892.625 551.667L883.625 545.667ZM1023.13 473.167L1017.13 482.667V488.667H1010.13V497.667L1017.13 500.167L1023.13 515.167L1029.13 522.667L1024.63 525.167C1024.63 525.167 1026.63 539.667 1034.13 541.167C1041.63 542.667 1051.13 538.167 1051.13 538.167V531.667L1041.63 515.167L1034.13 497.667L1024.63 488.667L1031.63 481.167V473.167H1023.13ZM1073.63 475.667L1068.13 485.667L1064.63 493.667L1073.63 497.667L1082.13 500.167L1083.13 484.667L1078.63 481.167L1077.13 475.667H1073.63ZM1009.63 870.167C1007.13 873.667 1012.63 879.167 1011.13 885.167C1009.63 891.167 1003.63 887.667 1003.63 894.167C1003.63 900.667 1008.13 906.167 1008.13 906.167C1008.13 906.167 1002.13 921.667 1008.13 919.667C1014.13 917.667 1024.63 906.167 1024.63 906.167C1024.63 906.167 1031.63 890.667 1032.63 881.667C1033.63 872.667 1042.13 865.167 1042.13 865.167L1046.13 850.167L1039.63 841.167L1032.63 843.667V858.167L1020.13 861.667L1014.13 868.667C1014.13 868.667 1012.13 866.667 1009.63 870.167ZM1456.13 379.667C1448.63 379.167 1456.13 383.667 1456.13 383.667L1462.63 397.667V387.667C1462.63 387.667 1463.63 380.167 1456.13 379.667ZM1462.63 402.167V411.167L1472.63 404.167L1467.63 397.667L1462.63 402.167ZM1467.63 413.667C1462.63 424.667 1467.63 436.167 1467.63 436.167C1467.63 436.167 1481.63 452.167 1481.63 447.667C1481.63 443.167 1477.13 423.167 1477.13 429.667C1477.13 436.167 1483.13 433.667 1481.63 424.667C1480.13 415.667 1474.13 411.167 1474.13 411.167C1474.13 411.167 1472.63 402.667 1467.63 413.667ZM1484.13 500.167C1484.13 500.167 1480.13 500.167 1477.13 503.667C1474.13 507.167 1478.48 496.754 1477.13 518.667C1475.77 540.579 1472.63 533.167 1472.63 533.167L1456.13 546.667H1448.63C1448.63 546.667 1437.13 552.167 1444.63 552.167C1452.13 552.167 1467.63 552.167 1467.63 552.167L1472.63 556.667L1474.13 546.667H1481.63C1483.78 549.323 1487.63 544.167 1490.13 538.167C1492.63 532.167 1490.13 524.667 1490.13 524.667C1490.13 524.667 1494.13 524.667 1492.63 514.167C1491.13 503.667 1484.13 500.167 1484.13 500.167ZM1437.13 563.167C1441.13 559.167 1442.13 556.667 1442.13 556.667L1448.13 558.667L1444.63 563.167C1444.63 563.167 1433.13 567.167 1437.13 563.167ZM1448.63 567.167C1444.88 558.167 1442.13 572.667 1442.13 572.667L1448.63 579.667L1456.13 572.667C1456.13 572.667 1452.38 576.167 1448.63 567.167ZM1459.13 556.667C1459.13 556.667 1449.63 556.667 1452.63 563.167C1455.63 569.667 1459.13 563.167 1459.13 563.167C1459.13 563.167 1464.13 567.167 1467.63 558.667C1471.13 550.167 1459.13 556.667 1459.13 556.667ZM1355.13 653.667C1355.13 646.667 1348.13 655.667 1348.13 655.667C1348.13 655.667 1348.13 656.667 1348.13 660.667C1348.13 664.667 1355.13 664.667 1355.13 664.667C1355.13 664.667 1355.13 660.667 1355.13 653.667ZM1297.13 719.667C1297.13 719.667 1290.13 721.667 1293.63 727.667C1297.13 733.667 1305.63 727.667 1305.63 727.667V741.667L1317.13 758.167C1323.46 761.833 1330.13 772.167 1336.13 766.667C1342.13 761.167 1328.79 753.5 1325.13 748.167L1317.13 733.667L1305.63 724.667L1297.13 719.667ZM1358.63 764.167L1371.63 754.667L1389.63 750.667C1389.63 750.667 1386.13 741.667 1393.63 737.667C1401.13 733.667 1404.13 741.667 1404.13 741.667C1404.13 741.667 1399.13 748.167 1398.13 761.167C1397.13 774.167 1398.63 774.667 1401.63 766.667C1404.63 758.667 1393.63 771.167 1393.63 778.167C1393.63 785.167 1393.63 793.667 1386.13 795.667C1378.63 797.667 1383.63 784.667 1380.63 790.167C1377.63 795.667 1371.13 793.667 1371.13 793.667C1371.13 793.667 1367.13 793.667 1369.63 788.167C1372.13 782.667 1364.13 790.167 1364.13 790.167L1358.63 772.167V764.167ZM1286.13 748.167L1299.13 764.167C1299.13 764.167 1299.13 778.167 1308.63 778.167C1318.13 778.167 1319.63 788.167 1319.63 788.167C1319.63 792.167 1325.13 801.167 1325.13 801.167C1329.53 801.967 1333.63 801.167 1336.13 805.167C1338.63 809.167 1342.13 793.667 1342.13 793.667L1333.63 785.167L1325.13 778.167L1317.13 764.167L1299.13 748.167L1286.13 741.667V748.167ZM1139.13 105H1161.13V87L1150.13 82L1139.13 90L1129.13 110L1139.13 105ZM1118.13 87L1126.63 93.5L1137.13 78.5L1148.13 70L1137.13 53.5L1122.5 57.5L1116.5 70L1118.13 87ZM1102 60L1107.63 63L1120.5 48.5L1129.13 46L1126.63 33L1118.13 26L1107.63 40L1102 60ZM974 40L980.5 43V40H974ZM984.125 37L986.625 43L996 37H984.125ZM964 33L971 35V31L964 33ZM976.5 31V35L980.5 37L976.5 31ZM984.125 22L980.5 31L986.625 33L984.125 22ZM962.5 42L967.5 46V40L962.5 42ZM971 46L974 51.5L979.5 50L971 46ZM982.5 48.5L984.125 55.5L990.125 50L982.5 48.5ZM993.625 46L1001.13 42L997.625 50L993.625 46ZM1330.13 118.5L1323.63 129.667L1334.13 132.167L1345.5 128.167L1330.13 118.5ZM1305.5 96.5L1296.63 109.5L1302.13 118.5H1313.13L1315.13 112L1331.5 108L1342 112L1340.5 98L1331.5 94.5L1313.13 91.5L1305.5 96.5ZM1348.13 87L1353.63 94.5L1363.5 91.5H1367.5V81.5L1355.5 87H1348.13ZM1486.63 117C1484.13 117.833 1479.63 119.9 1481.63 121.5C1483.63 123.1 1488.13 124.833 1490.13 125.5L1506.13 121.5L1500.13 117H1486.63Z" stroke="white"/>
<path d="M370.125 721.667C369.125 726.666 378.125 739.667 378.125 739.667L355.625 767.667L358.625 780.667L355.625 791.667L374.125 833.167L413.625 880.167L420.625 931.667L413.625 992.167L410.125 1005.17C410.125 1005.17 403.625 1000.17 413.625 1024.67C423.625 1049.17 420.541 1048.07 420.625 1040.17V1066.17C420.625 1066.17 411.625 1063.17 416.125 1072.67C420.625 1082.17 423.625 1072.67 423.625 1072.67L428.625 1089.67L436.125 1094.17C436.125 1094.17 428.625 1095.67 428.625 1104.17C428.625 1112.67 446.625 1121.17 451.625 1125.67C456.625 1130.17 463.125 1132.67 463.625 1125.67C464.125 1118.67 460.625 1099.17 460.625 1099.17C460.625 1099.17 466.125 1080.17 465.625 1068.17C465.125 1056.17 456.125 1058.17 456.125 1058.17L463.625 1049.17V1037.17L471.125 1034.67L460.625 1024.67L471.125 1016.17L472.625 1007.67L485.125 1000.17C485.125 1000.17 497.125 1000.17 496.125 992.167C495.125 984.167 488.125 980.166 491.125 974.167C494.125 968.167 503.625 965.666 508.125 974.167C512.625 982.667 503.125 980.167 511.125 977.167C519.125 974.167 519.125 949.667 519.125 949.667C519.125 949.667 534.125 937.666 535.125 931.667C536.125 925.667 526.625 913.666 535.125 909.667C543.625 905.667 567.625 896.666 571.125 892.667C574.625 888.667 577.625 880.167 577.625 880.167C577.625 880.167 574.625 851.666 577.625 845.167C580.625 838.667 595.125 819.667 595.125 819.667C595.125 819.667 600.125 810.166 599.625 803.667C599.125 797.167 583.625 791.667 583.625 791.667L562.125 785.667H548.125C548.125 785.667 552.125 778.167 548.125 775.667C544.125 773.167 534.125 773.167 534.125 773.167H526.625L519.125 775.667C519.125 775.667 526.625 773.167 523.625 767.667C520.625 762.167 511.625 773.167 511.625 773.167L519.125 760.167L511.625 747.667L503.625 739.667L488.125 731.667L473.125 721.667L449.625 709.167L442.625 704.167H426.625L417.625 697.667L411.625 695.667L404.125 709.167V695.667L397.625 700.667H387.625L382.125 716.167C382.125 716.167 371.125 716.667 370.125 721.667ZM460.625 1131.17L463.625 1139.67C463.625 1139.67 473.125 1134.17 475.625 1128.17C478.125 1122.17 475.625 1116.67 472.625 1121.17C469.625 1125.67 463.625 1131.17 463.625 1131.17H460.625Z" stroke="white"/>
<path d="M402.625 281.667L409.375 283.667M409.375 283.667L416.125 285.667V277.167L427.125 281.667V262.167L435.625 257.667L423.625 245.667L409.125 258.667H402.625L409.125 245.667L399.125 252.667V241.167V218.667V206.167L409.125 195.667L423.625 186.667C423.625 186.667 415.625 176.667 409.125 176.667C402.625 176.667 399.125 195.667 399.125 195.667L385.625 218.667L381.125 245.667L364.625 257.667L361.125 252.667L330.125 241.167L313.625 252.667V241.167L282.125 232.667L295.625 227.667L275.625 209.667C275.625 209.667 269.625 200.667 265.125 200.667C260.625 200.667 265.125 209.667 265.125 209.667L257.625 195.667L252.625 200.667C252.625 200.667 252.625 186.667 247.625 186.667C242.625 186.667 233.625 200.667 233.625 200.667H217.125C217.125 200.667 237.125 196.667 233.625 191.667C230.125 186.667 207.625 195.667 207.625 195.667L196.625 186.667L175.125 170.167L152.125 148.667C152.125 148.667 140.125 132.167 134.625 132.167C129.125 132.166 122.322 133.797 118.125 138.167C105.511 141.042 98.6385 144.047 87.1253 154.667L79.1253 160.167V176.667C79.1253 176.667 90.1252 186.667 87.1253 191.667C84.1253 196.667 79.1253 195.667 79.1253 195.667H67.1253C67.1253 195.667 70.6253 196.667 72.1253 191.667C73.6252 186.667 72.1253 189.167 67.1253 186.667C62.1252 184.167 50.6253 191.667 50.6253 191.667L42.1253 206.167L50.6253 218.667H67.1253L59.6253 232.667H42.1253L29.1253 245.667L21.6253 262.167C21.6253 262.167 21.6253 267.167 25.6253 271.667C29.6253 276.167 34.1253 267.167 34.1253 267.167C34.1253 267.167 26.6253 289.167 29.1253 294.667C31.6252 300.167 42.1253 294.667 42.1253 294.667L34.1253 308.667C34.1253 308.667 17.6253 317.667 21.6253 322.667C25.6253 327.667 50.6253 314.667 50.6253 314.667L63.6253 298.667L67.1253 294.667L95.6253 271.667C95.6253 271.667 74.6253 290.667 79.1253 294.667C83.6252 298.667 95.6253 285.667 95.6253 285.667L102.625 283.667L130.125 294.667L144.625 327.667L156.125 322.667L162.625 385.667L166.625 406.167L162.625 412.667L175.125 426.667L166.625 450.167L156.125 488.167L162.625 521.667L175.125 549.167L189.625 586.667C189.625 586.667 182.625 590.667 183.125 595.667C183.625 600.667 201.625 618.167 207.625 620.667C213.625 623.167 209.953 612.319 207.625 604.167L196.625 586.667L193.125 566.167L217.125 604.167L233.625 636.167L229.125 647.667L265.125 673.167H282.125L324.625 687.667L330.125 704.167L350.125 712.667C350.125 712.667 385.125 721.167 373.125 712.667C361.125 704.167 346.125 704.167 346.125 704.167L335.125 673.167L318.125 664.167C318.125 664.167 329.125 642.667 330.125 636.167C331.125 629.667 305.125 647.667 305.125 647.667L282.125 651.667L275.625 628.167V595.667L295.625 581.667L313.625 586.667L324.625 575.667L346.125 586.667C346.125 586.667 354.625 616.667 361.125 614.667C367.625 612.667 364.625 564.167 364.625 564.167L393.625 540.667V527.667L402.625 521.667L416.125 507.667H427.125L435.625 488.167L462.125 474.667C462.125 474.667 448.125 488.167 455.125 488.167C462.125 488.167 485.125 481.667 481.625 474.667C478.125 467.667 470.125 470.167 470.125 470.167L462.125 465.167L455.125 457.167C455.125 457.167 466.125 453.667 462.125 450.167C458.125 446.667 447.625 457.167 435.625 457.167C423.625 457.167 462.125 440.667 462.125 440.667H490.125L512.625 426.667L509.625 419.167L490.125 393.667C490.125 393.667 492.625 367.667 490.125 362.167C487.625 356.667 462.125 367.667 462.125 367.667V351.667C462.125 351.667 455.125 332.667 449.125 332.667C443.125 332.667 433.125 327.667 427.125 332.667C421.125 337.667 427.125 341.167 427.125 341.167L416.125 362.167V385.667C416.125 385.667 403.625 388.167 402.625 393.667C401.625 399.167 399.125 419.167 393.625 423.667C388.125 428.167 390.125 398.167 385.625 393.667C381.125 389.167 361.125 373.167 361.125 373.167L346.125 362.167V351.667L339.125 346.667L346.125 327.667L369.625 308.667L364.625 303.667H374.625L393.625 294.667C393.625 294.667 381.625 288.667 381.125 283.667C380.625 278.667 397.125 288.667 397.125 288.667L409.375 283.667ZM310.625 202.667L293.125 206.167L299.625 214.667V223.167C302.792 226.667 309.425 233.467 310.625 232.667C311.825 231.867 317.459 229 320.125 227.667L327.625 235.167L330.125 231.167L348.625 241.167L352.625 237.167L345.125 225.667L356.625 221.167L352.625 214.667C352.625 214.667 361.125 176.667 356.625 175.167C352.125 173.667 345.125 195.667 345.125 195.667L342.625 176.667L334.625 180.667L327.625 176.667L324.625 168.667L306.625 170.167L299.625 180.667L304.625 186.667L295.625 191.667L310.625 202.667ZM310.625 202.667L317.625 207.667M409.125 221.167L412.625 214.667L416.125 206.167L435.625 191.667L438.625 195.667C438.625 195.667 422.625 228.667 430.625 223.667C438.625 218.667 442.625 195.667 442.625 195.667L455.125 200.667M409.125 221.167H423.625M409.125 221.167L416.125 235.167L433.125 242.667L442.625 245.667L455.125 241.167V249.167L446.625 255.167L462.125 267.167V271.667M462.125 271.667H449.125L446.625 281.667L455.125 277.167L462.125 271.667ZM462.125 271.667L466.125 274.417L470.125 277.167V288.667L466.125 285.667L455.125 294.667V298.667H442.625L435.625 303.667L438.625 308.667L451.125 306.167L455.125 319.167C455.125 319.167 474.625 343.667 479.125 345.667C483.625 347.667 479.125 332.667 479.125 332.667L470.125 319.167L485.125 332.667L490.125 319.167L485.125 308.667L481.625 294.667L483.125 291.167L490.125 298.667L498.125 308.667L504.125 303.667C504.125 303.667 504.125 294.667 512.625 294.667C521.125 294.667 498.125 283.667 498.125 283.667V277.167L485.125 262.167L492.625 264.667L490.125 257.667L498.125 255.167L485.125 245.667L492.625 242.667L485.125 232.667L479.125 235.167V225.667L470.125 229.167V214.667M470.125 214.667L459.625 219.667L451.125 214.667L459.625 207.667M470.125 214.667L459.625 207.667M470.125 214.667L473.625 206.167L466.125 200.667H455.125M459.625 207.667L455.125 200.667M299.625 132.167C306.625 132.167 313.625 143.167 313.625 143.167V148.667L324.625 143.167V160.167L304.625 164.167L291.625 180.667H275.625L282.125 164.167C282.125 164.167 292.625 132.167 299.625 132.167ZM372.625 229.167L362.125 238.167L366.625 249.167L376.625 241.167L372.625 229.167ZM498.125 440.667L490.125 457.167L492.625 461.167H504.125L498.125 470.167L504.125 474.667L509.625 470.167L512.625 474.667C512.625 474.667 521.125 479.167 522.125 474.667C523.125 470.167 512.625 465.167 512.625 465.167V453.667L506.125 448.167L504.125 440.667H498.125ZM346.125 636.167L353.625 628.167L381.625 640.167C390.704 641.377 399.625 643.667 396.625 647.667C393.625 651.667 381.625 647.667 381.625 647.667L367.625 640.167L346.125 636.167ZM396.625 660.167L402.625 651.667H410.625L420.625 655.167V664.167H406.125L396.625 660.167Z" stroke="white"/>
<path d="M542.625 155.167C542.625 155.167 529.625 149.167 529.625 140.667C529.625 132.167 542.625 128.167 542.625 128.167C542.625 128.167 550.625 124.167 556.125 128.167C561.625 132.167 560.125 114.667 560.125 114.667C560.125 114.667 556.125 114.667 556.125 107.667C556.125 100.667 567.125 98.1667 572.125 98.1667C577.125 98.1667 572.125 104.667 572.125 104.667L576.125 94.1667H584.625L588.125 89.1667H593.125V85.6667C593.125 85.6667 607.125 85.6667 611.625 85.6667C616.125 85.6667 607.125 100.167 611.625 98.1667C616.125 96.1667 616.125 89.1667 616.125 89.1667H622.625C622.625 89.1667 617.125 79.6667 622.625 79.6667C628.125 79.6667 635.125 96.1667 639.625 98.1667C644.125 100.167 635.125 81.6667 635.125 81.6667C635.125 81.6667 638.125 82.1667 644.125 89.1667C650.125 96.1667 639.625 79.6667 639.625 79.6667C639.625 79.6667 658.125 94.1667 658.125 85.6667C658.125 77.1667 653.125 79.6667 653.125 79.6667C653.125 79.6667 702.625 73.6667 704.625 79.6667C706.625 85.6667 704.625 85.6667 704.625 85.6667L710.125 89.1667V96.1667L692.625 98.1667C692.625 98.1667 689.625 94.1667 684.125 91.6667C678.625 89.1667 669.625 94.6667 674.125 101.167C678.625 107.667 686.625 96.0417 695.625 101.167C704.625 106.292 695.625 111.167 695.625 111.167L707.625 104.667V111.167L704.625 117.667L713.625 111.167C713.625 111.167 716.125 114.667 722.625 114.667C729.125 114.667 722.625 107.667 728.625 107.667C734.625 107.667 732.125 111.167 734.625 117.667C737.125 124.167 728.625 128.167 728.625 128.167H722.625C722.625 128.167 729.125 140.667 722.625 140.667C716.125 140.667 722.625 132.167 713.625 134.667C704.625 137.167 716.125 149.167 716.125 149.167L713.625 158.167L704.625 162.167C702.792 166 700.225 174.567 704.625 178.167C709.025 181.767 713.625 181.667 713.625 188.167C713.625 194.667 704.625 190.667 704.625 190.667C704.625 190.667 708.625 191.167 710.125 198.667C711.625 206.167 702.625 198.667 702.625 198.667C702.625 198.667 705.125 202.667 707.625 208.167C710.125 213.667 692.625 203.167 692.625 208.167C692.625 213.167 695.625 216.667 695.625 216.667C695.625 216.667 699.125 217.667 704.625 224.167C710.125 230.667 695.625 224.167 695.625 224.167C695.625 224.167 700.625 221.167 702.625 230.667C704.625 240.167 695.625 235.167 695.625 235.167L684.125 230.667V235.167L676.625 230.667L678.625 246.667C680.459 248 684.525 251.067 686.125 252.667C687.725 254.267 695.625 268.167 692.625 271.167C689.625 274.167 667.625 244.167 667.625 252.667C667.625 261.167 676.625 265.167 676.625 265.167C676.625 265.167 664.625 265.167 667.625 268.167C670.625 271.167 678.125 268.167 681.125 274.667C684.125 281.167 678.625 281.167 678.625 281.167L658.125 287.667L635.125 302.667L628.125 309.667L618.125 314.667L600.125 328.167C600.125 328.167 593.125 346.167 588.125 351.167C583.125 356.167 584.625 362.167 581.125 371.167C577.625 380.167 567.125 356.667 567.125 356.667L560.125 351.167C560.125 351.167 550.625 302.667 548.625 297.667C546.625 292.667 554.125 290.167 554.125 290.167C554.125 290.167 548.625 290.167 550.625 284.667C552.625 279.167 560.125 279.167 560.125 284.667C560.125 290.167 555.375 284.667 556.125 278.167C556.875 271.667 567.125 281.167 567.125 281.167C572.125 278.167 567.125 268.167 567.125 268.167C567.125 268.167 556.125 262.167 556.125 252.667C556.125 243.167 562.125 259.667 567.125 256.167C572.125 252.667 567.125 243.667 562.625 240.167C558.125 236.667 556.125 248.667 556.125 248.667V235.167L562.625 226.667V208.167C562.625 208.167 554.125 208.167 556.125 201.167C558.125 194.167 560.125 190.667 560.125 190.667L548.625 178.167L536.125 176.167L529.625 178.167V165.667C529.625 165.667 520.125 162.167 524.125 158.167C528.125 154.167 542.625 155.167 542.625 155.167Z" stroke="white"/>
<path d="M682.125 313.667C682.125 313.667 676.625 314.167 676.625 321.167C676.625 328.167 682.125 324.167 682.125 324.167L676.625 328.167L679.625 335.667H682.125V341.667H689.625C689.625 341.667 692.125 347.667 698.625 344.667C705.125 341.667 712.625 335.667 712.625 335.667C712.625 335.667 718.125 341.667 720.625 333.167C723.125 324.667 718.125 324.167 718.125 324.167C718.125 324.167 715.125 314.667 709.625 313.667C704.125 312.667 705.125 321.167 705.125 321.167C705.125 321.167 710.125 313.167 698.625 318.167C687.125 323.167 693.125 324.167 693.125 324.167C693.125 324.167 695.875 315.417 689.625 318.167C683.375 320.917 684.625 328.167 684.625 328.167L682.125 313.667Z" stroke="white"/>
<path d="M1577.13 833.667C1577.13 833.667 1560.63 824.667 1558.13 820.167C1555.63 815.667 1561.13 820.167 1558.13 810.167C1555.13 800.167 1536.13 798.167 1528.63 793.167C1521.13 788.167 1510.63 780.167 1504.13 784.167C1497.63 788.167 1487.63 788.167 1487.63 788.167C1487.63 788.167 1485.63 782.166 1481.13 778.166C1476.63 774.166 1476.63 784.167 1476.63 784.167L1484.13 793.167L1493.13 798.167C1493.13 798.167 1507.63 801.589 1511.13 810.167C1514.63 818.744 1504.13 815.667 1507.63 820.167C1511.13 824.667 1518.13 812.667 1518.13 820.167C1518.13 827.666 1532.13 833.667 1536.13 830.167C1540.13 826.667 1532.13 824.667 1536.13 820.167C1540.13 815.667 1548.63 824.667 1548.63 824.667C1552.34 829.939 1551.13 833.667 1558.13 838.167C1565.13 842.667 1563.13 838.167 1569.63 838.167C1576.13 838.167 1577.13 833.667 1577.13 833.667ZM1577.13 833.667C1577.13 833.667 1586.63 838.167 1585.63 833.667M1518.13 877.167C1527.24 871.701 1525.44 838.206 1528.63 838.167C1531.81 838.127 1540.63 861.167 1540.63 861.167L1548.63 877.167V893.167L1558.13 902.167L1569.63 928.167C1569.63 928.167 1579.13 948.667 1577.13 959.667C1575.13 970.666 1562.13 978.167 1558.13 987.667C1554.13 997.167 1545.13 1020.67 1540.63 1026.67C1536.13 1032.67 1525.13 1033.67 1525.13 1033.67C1525.13 1033.67 1518.13 1026.67 1511.13 1026.67C1504.13 1026.67 1515.13 1036.67 1504.13 1033.67C1493.13 1030.67 1493.13 1008.17 1493.13 1008.17C1493.13 1008.17 1484.13 1008.17 1484.13 1004.17C1484.13 1000.17 1493.13 987.667 1487.63 987.667C1482.13 987.667 1486.13 1011.17 1476.63 1004.17C1467.13 997.167 1463.13 982.667 1463.13 982.667L1453.13 976.667C1453.13 976.667 1439.63 979.166 1436.13 982.667C1432.63 986.167 1435.63 982.667 1424.13 982.667C1412.63 982.667 1430.13 984.667 1424.13 987.667C1418.13 990.666 1401.63 987.667 1401.63 987.667C1401.63 987.667 1397.63 997.167 1392.13 997.167C1386.63 997.167 1382.13 1000.17 1376.13 997.167C1370.13 994.166 1368.18 987.667 1370.13 982.667C1372.07 977.667 1376.13 973.666 1376.13 968.667C1376.13 963.667 1367.63 943.666 1370.13 939.167C1372.63 934.667 1373.13 939.167 1376.13 933.667C1379.13 928.167 1370.13 924.666 1370.13 915.667C1370.13 906.667 1384.13 902.167 1384.13 902.167C1384.13 902.167 1387.13 893.167 1392.13 893.167C1397.13 893.167 1405.63 893.167 1405.63 893.167L1424.13 877.167H1429.63V867.667L1447.63 861.167L1456.63 867.667L1463.13 849.667H1476.63C1476.63 849.667 1470.63 838.167 1476.63 838.167C1482.63 838.167 1497.63 846.167 1497.63 846.167V861.167H1493.13L1504.13 871.667C1504.13 871.667 1509.01 882.633 1518.13 877.167Z" stroke="white"/>
</g>
<defs>
<filter id="filter0_d" x="0.5" y="0.330566" width="1620.19" height="1160.07" filterUnits="userSpaceOnUse" color-interpolation-filters="sRGB">
<feFlood flood-opacity="0" result="BackgroundImageFix"/>
<feColorMatrix in="SourceAlpha" type="matrix" values="0 0 0 0 0 0 0 0 0 0 0 0 0 0 0 0 0 0 127 0"/>
<feOffset/>
<feGaussianBlur stdDeviation="10"/>
<feColorMatrix type="matrix" values="0 0 0 0 0 0 0 0 0 0 0 0 0 0 0 0 0 0 0.01 0"/>
<feBlend mode="normal" in2="BackgroundImageFix" result="effect1_dropShadow"/>
<feBlend mode="normal" in="SourceGraphic" in2="effect1_dropShadow" result="shape"/>
</filter>
</defs>
</svg>
