<svg width="1920" height="1121" viewBox="0 0 1920 1121" fill="none" xmlns="http://www.w3.org/2000/svg">
<g filter="url(#filter0_f)">
<path d="M12.7266 604.679C16.2135 604.788 18.9694 607.331 18.882 610.359C18.7946 613.386 15.897 615.753 12.4101 615.644C8.92315 615.535 6.16729 612.992 6.2547 609.965C6.3421 606.937 9.23968 604.571 12.7266 604.679Z" fill="#31475B" fill-opacity="0.4"/>
<path d="M402.816 540.597C405.498 540.68 407.618 542.636 407.551 544.965C407.484 547.294 405.255 549.115 402.572 549.031C399.89 548.947 397.77 546.991 397.837 544.662C397.905 542.333 400.134 540.513 402.816 540.597Z" fill="#31475B" fill-opacity="0.4"/>
<path d="M399.288 148.515C402.775 148.624 405.531 151.166 405.444 154.194C405.356 157.222 402.459 159.588 398.972 159.479C395.485 159.37 392.729 156.828 392.816 153.8C392.904 150.772 395.801 148.406 399.288 148.515Z" fill="#31475B" fill-opacity="0.4"/>
<path d="M552.707 482.675C556.194 482.784 558.95 485.327 558.862 488.355C558.775 491.382 555.877 493.749 552.39 493.64C548.904 493.531 546.148 490.988 546.235 487.961C546.323 484.933 549.22 482.566 552.707 482.675Z" fill="#31475B" fill-opacity="0.4"/>
<path d="M681.152 559.259C683.834 559.342 685.954 561.298 685.887 563.627C685.82 565.956 683.591 567.777 680.908 567.693C678.226 567.609 676.106 565.653 676.173 563.324C676.241 560.995 678.47 559.175 681.152 559.259Z" fill="#31475B" fill-opacity="0.4"/>
<path d="M755.522 409.477C758.204 409.561 760.324 411.517 760.257 413.846C760.19 416.175 757.961 417.995 755.279 417.912C752.597 417.828 750.477 415.872 750.544 413.543C750.611 411.214 752.84 409.394 755.522 409.477Z" fill="#31475B" fill-opacity="0.4"/>
<path d="M692.178 217.463C694.861 217.547 696.98 219.503 696.913 221.832C696.846 224.161 694.617 225.981 691.935 225.898C689.253 225.814 687.133 223.858 687.2 221.529C687.267 219.2 689.496 217.38 692.178 217.463Z" fill="#31475B" fill-opacity="0.4"/>
<path d="M555.918 142.33C559.405 142.439 562.161 144.982 562.073 148.01C561.986 151.037 559.088 153.404 555.601 153.295C552.114 153.186 549.359 150.643 549.446 147.616C549.533 144.588 552.431 142.221 555.918 142.33Z" fill="#31475B" fill-opacity="0.4"/>
<path d="M425.116 327.553C428.603 327.662 431.359 330.205 431.272 333.232C431.184 336.26 428.287 338.627 424.8 338.518C421.313 338.409 418.557 335.866 418.644 332.838C418.732 329.811 421.629 327.444 425.116 327.553Z" fill="#31475B" fill-opacity="0.4"/>
<path d="M310.281 300.382C313.767 300.491 316.523 303.034 316.436 306.061C316.349 309.089 313.451 311.455 309.964 311.347C306.477 311.238 303.721 308.695 303.809 305.667C303.896 302.639 306.794 300.273 310.281 300.382Z" fill="#31475B" fill-opacity="0.4"/>
<path d="M276.902 14.6716C280.389 14.7804 283.145 17.3232 283.057 20.351C282.97 23.3787 280.072 25.745 276.585 25.6362C273.098 25.5273 270.342 22.9846 270.43 19.9568C270.517 16.929 273.415 14.5628 276.902 14.6716Z" fill="#31475B" fill-opacity="0.4"/>
<path d="M56.0869 220.791C59.5738 220.9 62.3297 223.443 62.2423 226.471C62.1549 229.498 59.2573 231.865 55.7704 231.756C52.2834 231.647 49.5276 229.104 49.615 226.077C49.7024 223.049 52.6 220.683 56.0869 220.791Z" fill="#31475B" fill-opacity="0.4"/>
</g>
<g filter="url(#filter1_f)">
<path d="M496.712 766.285C494.399 766.243 492.556 764.256 492.596 761.847C492.637 759.437 494.545 757.518 496.859 757.56C499.172 757.603 501.015 759.59 500.974 761.999C500.934 764.409 499.025 766.328 496.712 766.285Z" fill="#31475B" fill-opacity="0.4"/>
<path d="M479.008 633.669C476.695 633.627 474.852 631.639 474.893 629.23C474.933 626.821 476.841 624.902 479.155 624.944C481.468 624.986 483.311 626.973 483.27 629.383C483.23 631.792 481.322 633.711 479.008 633.669Z" fill="#31475B" fill-opacity="0.4"/>
<path d="M220.608 689.502C218.828 689.469 217.411 687.941 217.442 686.087C217.473 684.234 218.941 682.758 220.721 682.79C222.5 682.823 223.918 684.351 223.886 686.205C223.855 688.058 222.387 689.534 220.608 689.502Z" fill="#31475B" fill-opacity="0.4"/>
<path d="M225.254 1001.2C222.941 1001.16 221.098 999.175 221.138 996.766C221.179 994.356 223.087 992.437 225.401 992.479C227.714 992.521 229.557 994.509 229.516 996.918C229.476 999.327 227.567 1001.25 225.254 1001.2Z" fill="#31475B" fill-opacity="0.4"/>
<path d="M121.514 737.431C119.2 737.389 117.358 735.402 117.398 732.992C117.439 730.583 119.347 728.664 121.66 728.706C123.974 728.748 125.816 730.736 125.776 733.145C125.735 735.554 123.827 737.473 121.514 737.431Z" fill="#31475B" fill-opacity="0.4"/>
<path d="M35.8556 678.146C34.076 678.114 32.6586 676.585 32.6898 674.732C32.7209 672.878 34.1888 671.402 35.9684 671.434C37.748 671.467 39.1654 672.996 39.1342 674.849C39.103 676.702 37.6352 678.179 35.8556 678.146Z" fill="#31475B" fill-opacity="0.4"/>
<path d="M30.551 950.047C28.7714 950.015 27.354 948.486 27.3852 946.633C27.4163 944.779 28.8842 943.303 30.6638 943.336C32.4434 943.368 33.8607 944.897 33.8296 946.75C33.7984 948.603 32.3305 950.08 30.551 950.047Z" fill="#31475B" fill-opacity="0.4"/>
<path d="M121.385 1008.08C119.072 1008.04 117.229 1006.05 117.27 1003.64C117.31 1001.23 119.219 999.314 121.532 999.356C123.845 999.398 125.688 1001.39 125.648 1003.8C125.607 1006.2 123.699 1008.12 121.385 1008.08Z" fill="#31475B" fill-opacity="0.4"/>
<path d="M207.067 859.169C204.753 859.127 202.911 857.14 202.951 854.731C202.992 852.321 204.9 850.402 207.214 850.444C209.527 850.487 211.37 852.474 211.329 854.883C211.289 857.293 209.38 859.212 207.067 859.169Z" fill="#31475B" fill-opacity="0.4"/>
<path d="M283.406 879.337C281.093 879.295 279.25 877.307 279.291 874.898C279.331 872.488 281.24 870.569 283.553 870.612C285.867 870.654 287.709 872.641 287.669 875.05C287.628 877.46 285.72 879.379 283.406 879.337Z" fill="#31475B" fill-opacity="0.4"/>
<path d="M307.23 1106.09C304.917 1106.05 303.074 1104.06 303.115 1101.65C303.155 1099.24 305.063 1097.33 307.377 1097.37C309.69 1097.41 311.533 1099.4 311.492 1101.81C311.452 1104.22 309.544 1106.13 307.23 1106.09Z" fill="#31475B" fill-opacity="0.4"/>
<path d="M452.502 939.443C450.188 939.401 448.346 937.413 448.386 935.004C448.427 932.595 450.335 930.676 452.649 930.718C454.962 930.76 456.805 932.747 456.764 935.156C456.724 937.566 454.815 939.485 452.502 939.443Z" fill="#31475B" fill-opacity="0.4"/>
</g>
<g filter="url(#filter2_f)">
<ellipse rx="13.5449" ry="10.1749" transform="matrix(-0.999993 -0.00369247 0.00340771 -0.999994 1860.08 1031.14)" fill="#31475B"/>
</g>
<g filter="url(#filter3_f)">
<ellipse rx="13.5453" ry="15.8064" transform="matrix(-0.999993 -0.0036925 0.00340768 -0.999994 1833.6 393.26)" fill="#31475B" fill-opacity="0.5"/>
</g>
<g filter="url(#filter4_f)">
<ellipse rx="7.50048" ry="6.57311" transform="matrix(-0.999993 -0.00369248 0.0034077 -0.999994 1265.97 807.218)" fill="#31475B"/>
</g>
<g filter="url(#filter5_f)">
<ellipse rx="5.96491" ry="6.10016" transform="matrix(-0.999993 -0.00369253 0.00340766 -0.999994 1791.99 421.279)" fill="#31475B" fill-opacity="0.4"/>
</g>
<g filter="url(#filter6_f)">
<ellipse rx="2.98957" ry="3.05008" transform="matrix(-0.999993 -0.00369242 0.00340775 -0.999994 1777.02 402.912)" fill="#31475B" fill-opacity="0.7"/>
</g>
<g filter="url(#filter7_f)">
<ellipse rx="19.1294" ry="16.3145" transform="matrix(-0.999993 -0.00369249 0.0034077 -0.999994 1792.86 51.2343)" fill="#31475B"/>
</g>
<g filter="url(#filter8_f)">
<ellipse rx="19.1294" ry="16.3145" transform="matrix(-0.999993 -0.00369249 0.0034077 -0.999994 1792.25 123.085)" fill="#31475B"/>
</g>
<g filter="url(#filter9_f)">
<ellipse rx="19.1294" ry="16.3145" transform="matrix(-0.999993 -0.00369249 0.0034077 -0.999994 1258.18 274.41)" fill="#31475B"/>
</g>
<g filter="url(#filter10_f)">
<ellipse rx="13.5203" ry="12.5471" transform="matrix(-0.999993 -0.0036925 0.00340768 -0.999994 718.524 421.946)" fill="#31475B" fill-opacity="0.7"/>
</g>
<g filter="url(#filter11_f)">
<ellipse rx="19.1294" ry="16.3145" transform="matrix(-0.999993 -0.00369249 0.0034077 -0.999994 1328.18 84.6259)" fill="#31475B" fill-opacity="0.7"/>
</g>
<g filter="url(#filter12_f)">
<ellipse rx="9.56474" ry="8.15726" transform="matrix(-0.999993 -0.00369248 0.00340771 -0.999994 1048.09 879.693)" fill="#31475B"/>
</g>
<g filter="url(#filter13_f)">
<ellipse rx="9.56468" ry="8.1573" transform="matrix(-0.999993 -0.00369251 0.00340767 -0.999994 1080.15 994.53)" fill="#31475B"/>
</g>
<g filter="url(#filter14_f)">
<ellipse rx="9.56474" ry="8.15726" transform="matrix(-0.999993 -0.00369248 0.00340771 -0.999994 1895.67 147.381)" fill="#31475B"/>
</g>
<g filter="url(#filter15_f)">
<ellipse rx="12.5007" ry="10.9552" transform="matrix(-0.999993 -0.0036925 0.00340769 -0.999994 1315.05 685.948)" fill="#31475B"/>
</g>
<g filter="url(#filter16_f)">
<ellipse rx="9.56474" ry="8.15726" transform="matrix(-0.999993 -0.00369247 0.00340771 -0.999994 1382.46 172.119)" fill="#31475B"/>
</g>
<g filter="url(#filter17_f)">
<ellipse rx="6.37647" ry="5.43817" transform="matrix(-0.999993 -0.00369248 0.0034077 -0.999994 477.763 516.376)" fill="#31475B"/>
</g>
<g filter="url(#filter18_f)">
<ellipse rx="9.56468" ry="8.15726" transform="matrix(-0.999993 -0.0036925 0.00340768 -0.999994 1401.12 946.487)" fill="#31475B"/>
</g>
<g filter="url(#filter19_f)">
<ellipse rx="6.37647" ry="5.43818" transform="matrix(-0.999993 -0.00369249 0.0034077 -0.999994 1664.14 29.0137)" fill="#31475B"/>
</g>
<g filter="url(#filter20_f)">
<ellipse rx="9.56471" ry="8.15726" transform="matrix(-0.999993 -0.00369249 0.0034077 -0.999994 485.267 375.541)" fill="#31475B" fill-opacity="0.7"/>
</g>
<g filter="url(#filter21_f)">
<path d="M613.5 44.773L354 32.5289L330 162.113L470.5 112.116L613.5 44.773Z" fill="#C1C1C1" fill-opacity="0.35"/>
</g>
<g filter="url(#filter22_f)">
<path d="M341.5 514.131L81.9999 501.887L57.9999 631.47L198.5 581.473L341.5 514.131Z" fill="#C1C1C1" fill-opacity="0.35"/>
</g>
<g filter="url(#filter23_f)">
<path d="M220.453 385.567L105.154 407.958L1.36889 537.966L220.453 385.567Z" fill="#C5C5C5" fill-opacity="0.4"/>
</g>
<g filter="url(#filter24_f)">
<path d="M-215 537.704L-99.2794 557.703L42.3943 472.735L-215 537.704Z" fill="#C5C5C5" fill-opacity="0.4"/>
</g>
<g filter="url(#filter25_f)">
<path d="M1581.87 1083.15L1812.8 1041.31L1806.46 914.106L1693.43 990.189L1581.87 1083.15Z" fill="#C1C1C1" fill-opacity="0.35"/>
</g>
<g filter="url(#filter26_f)">
<path d="M1727.14 660.321L1889.6 632.133L1882.3 530.113L1804.01 588.44L1727.14 660.321Z" fill="#C1C1C1" fill-opacity="0.35"/>
</g>
<g filter="url(#filter27_f)">
<path d="M1823.91 740.605L1891.34 706.915L1933.27 593.042L1823.91 740.605Z" fill="#C5C5C5" fill-opacity="0.7"/>
</g>
<g filter="url(#filter28_f)">
<path d="M2067.03 561.975L1992.1 563.487L1919.06 648.581L2067.03 561.975Z" fill="#C5C5C5" fill-opacity="0.4"/>
</g>
<defs>
<filter id="filter0_f" x="-32.9522" y="0.667999" width="807.211" height="628.979" filterUnits="userSpaceOnUse" color-interpolation-filters="sRGB">
<feFlood flood-opacity="0" result="BackgroundImageFix"/>
<feBlend mode="normal" in="SourceGraphic" in2="BackgroundImageFix" result="shape"/>
<feGaussianBlur stdDeviation="7" result="effect1_foregroundBlur"/>
</filter>
<filter id="filter1_f" x="-29.7658" y="610.943" width="544.741" height="509.15" filterUnits="userSpaceOnUse" color-interpolation-filters="sRGB">
<feFlood flood-opacity="0" result="BackgroundImageFix"/>
<feBlend mode="normal" in="SourceGraphic" in2="BackgroundImageFix" result="shape"/>
<feGaussianBlur stdDeviation="7" result="effect1_foregroundBlur"/>
</filter>
<filter id="filter2_f" x="1815.53" y="989.966" width="89.0898" height="82.35" filterUnits="userSpaceOnUse" color-interpolation-filters="sRGB">
<feFlood flood-opacity="0" result="BackgroundImageFix"/>
<feBlend mode="normal" in="SourceGraphic" in2="BackgroundImageFix" result="shape"/>
<feGaussianBlur stdDeviation="15.5" result="effect1_foregroundBlur"/>
</filter>
<filter id="filter3_f" x="1789.05" y="346.454" width="89.0906" height="93.6128" filterUnits="userSpaceOnUse" color-interpolation-filters="sRGB">
<feFlood flood-opacity="0" result="BackgroundImageFix"/>
<feBlend mode="normal" in="SourceGraphic" in2="BackgroundImageFix" result="shape"/>
<feGaussianBlur stdDeviation="15.5" result="effect1_foregroundBlur"/>
</filter>
<filter id="filter4_f" x="1235.47" y="777.645" width="61.0009" height="59.1463" filterUnits="userSpaceOnUse" color-interpolation-filters="sRGB">
<feFlood flood-opacity="0" result="BackgroundImageFix"/>
<feBlend mode="normal" in="SourceGraphic" in2="BackgroundImageFix" result="shape"/>
<feGaussianBlur stdDeviation="11.5" result="effect1_foregroundBlur"/>
</filter>
<filter id="filter5_f" x="1776.02" y="405.178" width="31.9298" height="32.2003" filterUnits="userSpaceOnUse" color-interpolation-filters="sRGB">
<feFlood flood-opacity="0" result="BackgroundImageFix"/>
<feBlend mode="normal" in="SourceGraphic" in2="BackgroundImageFix" result="shape"/>
<feGaussianBlur stdDeviation="5" result="effect1_foregroundBlur"/>
</filter>
<filter id="filter6_f" x="1769.03" y="394.862" width="15.9791" height="16.1002" filterUnits="userSpaceOnUse" color-interpolation-filters="sRGB">
<feFlood flood-opacity="0" result="BackgroundImageFix"/>
<feBlend mode="normal" in="SourceGraphic" in2="BackgroundImageFix" result="shape"/>
<feGaussianBlur stdDeviation="2.5" result="effect1_foregroundBlur"/>
</filter>
<filter id="filter7_f" x="1753.73" y="14.9197" width="78.2587" height="72.6292" filterUnits="userSpaceOnUse" color-interpolation-filters="sRGB">
<feFlood flood-opacity="0" result="BackgroundImageFix"/>
<feBlend mode="normal" in="SourceGraphic" in2="BackgroundImageFix" result="shape"/>
<feGaussianBlur stdDeviation="10" result="effect1_foregroundBlur"/>
</filter>
<filter id="filter8_f" x="1731.12" y="64.7705" width="122.259" height="116.629" filterUnits="userSpaceOnUse" color-interpolation-filters="sRGB">
<feFlood flood-opacity="0" result="BackgroundImageFix"/>
<feBlend mode="normal" in="SourceGraphic" in2="BackgroundImageFix" result="shape"/>
<feGaussianBlur stdDeviation="21" result="effect1_foregroundBlur"/>
</filter>
<filter id="filter9_f" x="1197.06" y="216.095" width="122.259" height="116.629" filterUnits="userSpaceOnUse" color-interpolation-filters="sRGB">
<feFlood flood-opacity="0" result="BackgroundImageFix"/>
<feBlend mode="normal" in="SourceGraphic" in2="BackgroundImageFix" result="shape"/>
<feGaussianBlur stdDeviation="21" result="effect1_foregroundBlur"/>
</filter>
<filter id="filter10_f" x="687.004" y="391.399" width="63.0405" height="61.0942" filterUnits="userSpaceOnUse" color-interpolation-filters="sRGB">
<feFlood flood-opacity="0" result="BackgroundImageFix"/>
<feBlend mode="normal" in="SourceGraphic" in2="BackgroundImageFix" result="shape"/>
<feGaussianBlur stdDeviation="9" result="effect1_foregroundBlur"/>
</filter>
<filter id="filter11_f" x="1275.06" y="34.3113" width="106.259" height="100.629" filterUnits="userSpaceOnUse" color-interpolation-filters="sRGB">
<feFlood flood-opacity="0" result="BackgroundImageFix"/>
<feBlend mode="normal" in="SourceGraphic" in2="BackgroundImageFix" result="shape"/>
<feGaussianBlur stdDeviation="17" result="effect1_foregroundBlur"/>
</filter>
<filter id="filter12_f" x="1005.52" y="838.536" width="85.1294" height="82.3146" filterUnits="userSpaceOnUse" color-interpolation-filters="sRGB">
<feFlood flood-opacity="0" result="BackgroundImageFix"/>
<feBlend mode="normal" in="SourceGraphic" in2="BackgroundImageFix" result="shape"/>
<feGaussianBlur stdDeviation="16.5" result="effect1_foregroundBlur"/>
</filter>
<filter id="filter13_f" x="1049.59" y="965.373" width="61.1293" height="58.3147" filterUnits="userSpaceOnUse" color-interpolation-filters="sRGB">
<feFlood flood-opacity="0" result="BackgroundImageFix"/>
<feBlend mode="normal" in="SourceGraphic" in2="BackgroundImageFix" result="shape"/>
<feGaussianBlur stdDeviation="10.5" result="effect1_foregroundBlur"/>
</filter>
<filter id="filter14_f" x="1867.1" y="120.223" width="57.1294" height="54.3146" filterUnits="userSpaceOnUse" color-interpolation-filters="sRGB">
<feFlood flood-opacity="0" result="BackgroundImageFix"/>
<feBlend mode="normal" in="SourceGraphic" in2="BackgroundImageFix" result="shape"/>
<feGaussianBlur stdDeviation="9.5" result="effect1_foregroundBlur"/>
</filter>
<filter id="filter15_f" x="1270.55" y="642.992" width="89.0014" height="85.9104" filterUnits="userSpaceOnUse" color-interpolation-filters="sRGB">
<feFlood flood-opacity="0" result="BackgroundImageFix"/>
<feBlend mode="normal" in="SourceGraphic" in2="BackgroundImageFix" result="shape"/>
<feGaussianBlur stdDeviation="16" result="effect1_foregroundBlur"/>
</filter>
<filter id="filter16_f" x="1357.89" y="148.962" width="49.1294" height="46.3146" filterUnits="userSpaceOnUse" color-interpolation-filters="sRGB">
<feFlood flood-opacity="0" result="BackgroundImageFix"/>
<feBlend mode="normal" in="SourceGraphic" in2="BackgroundImageFix" result="shape"/>
<feGaussianBlur stdDeviation="7.5" result="effect1_foregroundBlur"/>
</filter>
<filter id="filter17_f" x="456.387" y="495.938" width="42.7529" height="40.8764" filterUnits="userSpaceOnUse" color-interpolation-filters="sRGB">
<feFlood flood-opacity="0" result="BackgroundImageFix"/>
<feBlend mode="normal" in="SourceGraphic" in2="BackgroundImageFix" result="shape"/>
<feGaussianBlur stdDeviation="7.5" result="effect1_foregroundBlur"/>
</filter>
<filter id="filter18_f" x="1362.56" y="909.329" width="77.1293" height="74.3146" filterUnits="userSpaceOnUse" color-interpolation-filters="sRGB">
<feFlood flood-opacity="0" result="BackgroundImageFix"/>
<feBlend mode="normal" in="SourceGraphic" in2="BackgroundImageFix" result="shape"/>
<feGaussianBlur stdDeviation="14.5" result="effect1_foregroundBlur"/>
</filter>
<filter id="filter19_f" x="1647.77" y="13.5755" width="32.7529" height="30.8764" filterUnits="userSpaceOnUse" color-interpolation-filters="sRGB">
<feFlood flood-opacity="0" result="BackgroundImageFix"/>
<feBlend mode="normal" in="SourceGraphic" in2="BackgroundImageFix" result="shape"/>
<feGaussianBlur stdDeviation="5" result="effect1_foregroundBlur"/>
</filter>
<filter id="filter20_f" x="465.702" y="357.384" width="39.1294" height="36.3146" filterUnits="userSpaceOnUse" color-interpolation-filters="sRGB">
<feFlood flood-opacity="0" result="BackgroundImageFix"/>
<feBlend mode="normal" in="SourceGraphic" in2="BackgroundImageFix" result="shape"/>
<feGaussianBlur stdDeviation="5" result="effect1_foregroundBlur"/>
</filter>
<filter id="filter21_f" x="311" y="13.5289" width="321.5" height="167.584" filterUnits="userSpaceOnUse" color-interpolation-filters="sRGB">
<feFlood flood-opacity="0" result="BackgroundImageFix"/>
<feBlend mode="normal" in="SourceGraphic" in2="BackgroundImageFix" result="shape"/>
<feGaussianBlur stdDeviation="9.5" result="effect1_foregroundBlur"/>
</filter>
<filter id="filter22_f" x="39.9999" y="483.887" width="319.5" height="165.584" filterUnits="userSpaceOnUse" color-interpolation-filters="sRGB">
<feFlood flood-opacity="0" result="BackgroundImageFix"/>
<feBlend mode="normal" in="SourceGraphic" in2="BackgroundImageFix" result="shape"/>
<feGaussianBlur stdDeviation="9" result="effect1_foregroundBlur"/>
</filter>
<filter id="filter23_f" x="-8.6311" y="375.567" width="239.084" height="172.399" filterUnits="userSpaceOnUse" color-interpolation-filters="sRGB">
<feFlood flood-opacity="0" result="BackgroundImageFix"/>
<feBlend mode="normal" in="SourceGraphic" in2="BackgroundImageFix" result="shape"/>
<feGaussianBlur stdDeviation="5" result="effect1_foregroundBlur"/>
</filter>
<filter id="filter24_f" x="-223" y="464.735" width="273.394" height="100.968" filterUnits="userSpaceOnUse" color-interpolation-filters="sRGB">
<feFlood flood-opacity="0" result="BackgroundImageFix"/>
<feBlend mode="normal" in="SourceGraphic" in2="BackgroundImageFix" result="shape"/>
<feGaussianBlur stdDeviation="4" result="effect1_foregroundBlur"/>
</filter>
<filter id="filter25_f" x="1562.87" y="895.106" width="268.938" height="207.048" filterUnits="userSpaceOnUse" color-interpolation-filters="sRGB">
<feFlood flood-opacity="0" result="BackgroundImageFix"/>
<feBlend mode="normal" in="SourceGraphic" in2="BackgroundImageFix" result="shape"/>
<feGaussianBlur stdDeviation="9.5" result="effect1_foregroundBlur"/>
</filter>
<filter id="filter26_f" x="1708.14" y="511.113" width="200.462" height="168.208" filterUnits="userSpaceOnUse" color-interpolation-filters="sRGB">
<feFlood flood-opacity="0" result="BackgroundImageFix"/>
<feBlend mode="normal" in="SourceGraphic" in2="BackgroundImageFix" result="shape"/>
<feGaussianBlur stdDeviation="9.5" result="effect1_foregroundBlur"/>
</filter>
<filter id="filter27_f" x="1813.91" y="583.042" width="129.362" height="167.563" filterUnits="userSpaceOnUse" color-interpolation-filters="sRGB">
<feFlood flood-opacity="0" result="BackgroundImageFix"/>
<feBlend mode="normal" in="SourceGraphic" in2="BackgroundImageFix" result="shape"/>
<feGaussianBlur stdDeviation="5" result="effect1_foregroundBlur"/>
</filter>
<filter id="filter28_f" x="1911.06" y="553.975" width="163.972" height="102.606" filterUnits="userSpaceOnUse" color-interpolation-filters="sRGB">
<feFlood flood-opacity="0" result="BackgroundImageFix"/>
<feBlend mode="normal" in="SourceGraphic" in2="BackgroundImageFix" result="shape"/>
<feGaussianBlur stdDeviation="4" result="effect1_foregroundBlur"/>
</filter>
</defs>
</svg>
