<svg width="775" height="535" viewBox="0 0 775 535" fill="none" xmlns="http://www.w3.org/2000/svg">
<g filter="url(#filter0_d)">
<path d="M310 439.5L303.5 437.5L299.5 439.5L308 448.5L295.5 443.5L294 446.5L284 448L277.5 443.5L266.5 445.5L270.5 448.5L275 453L268.5 457L264 455.5L256 453L253 446.5L249.5 441.5L238.5 442.5L233 439.5L224.5 435L220.5 430.5L216.5 427.5L209 428.5L212 435H206L204 432.5L199.5 428.5L187 432.5L175.5 441.5L180.5 448.5L179 457L175.5 462V472L168.5 481L169.5 487H162.5V496L169.5 499L175.5 513.5L166 510L151.5 507L137 503L133 501L126 499L117.5 491.5L107 487L113 483L119.5 480L115 472H113V467.5H119.5C120.667 466.167 122.7 463.2 121.5 462C120.3 460.8 117.667 458.167 116.5 457L108.5 455.5H105L98.5 451.5L101 448.5L95.5 443L90.5 441.5L87 447H81L76.5 443L81 441.5L83 436.5H79.5L76 433L72 429.5L71 422.5L74.5 416V409.5L67 405.5L59 402L56.5 393L60.5 380L65.5 371V366L62.5 364.5L56.5 365L63 355L68.5 348.5L63 337.5L56.5 327L59 314L56.5 308.5L59 301L63 289.5L69.5 281.5L76.5 278.5L81 281.5L90.5 289.5L101 294.5V311.5H92L76.5 303.5H68.5L71 311.5L81 314L85.5 326L93 327L98.5 330L105 327L103.5 320.5L113 311.5L123 308.5L119.5 297L115 293V289.5L118 286L127 292.5L131 306.5L132 297L141.5 292.5L148.5 283H154L152 276L159 277.5L160.5 281.5L156.5 292.5L163 285L169 278.5L181 276L186.5 280.5L185 271L174.5 266L172 257L199 269L208 276L217 273.5L211 264L203 226L211 216L217 219L220.5 230.5V242L232.5 260L228 252L238.5 280.5L230 294.5L232.5 297L247.5 280.5L240.5 264L235 248L232.5 226L233.5 219L238.5 223.5L236 239.5H241.5L240.5 226V216L259.5 225L250.5 207.5L256.5 196L262.5 200.5L269.5 197.5L259.5 189.5L262.5 176.5L270.5 167.5L280.5 165L278 158.5L280.5 156.5L283.5 152L290 156.5L292 152L301 149L305.5 143L301 134.5L297 116.5L313 119.5L314.5 128L324 138V128L333.5 126L337 132.5L346 130L350.5 143L359.5 148L349 171L350.5 182.5L331 203L350.5 192.5L357.5 175.5L355 166L357.5 165L365 171L375 169.5L395 172C398.333 171.167 405.2 169.5 406 169.5C406.8 169.5 411.333 171.167 413.5 172L412.5 165L410.5 162.5L423.5 155L432.5 156.5L444 176.5H449L454 180L461.5 185L466.5 178L458 173.5L464.5 168L467.5 173.5L476 176.5V173.5L482 169.5L486 179H492L486 169.5L489.5 162.5L486 163.5L481 153L486 152L482 148L483.5 143L490.5 146.5L500 144.5L512 154L506 143H513.5L518.5 139L523.5 146.5L533 153L547 156L554.5 153L557.5 148L562.5 144.5L589 162.5L597.5 163.5L604 160L607 154L609 153L617.5 156L615.5 145.5L619.5 141L628.5 156L634.5 152L627.5 137L646 134L667 141H681L699 148L725 167.5L717.5 160L723.5 157L727 159L741.5 160L737 182.5L754 193.5L748 199.5L733 190.5L719.5 192L704 173L712 193.5L708.5 206L695.5 201L701 207.5L714 212.5L715.5 220.5L720.5 221.5L727 226.5V233.5L718 230H713L718 243.5V250.5L708.5 256L706.5 262L709.5 270L708.5 274.5L699 277L692.5 275L687.5 282.5L681.5 278L674 293.5L682.5 304L692 316.5L695 328.5L695.5 343L697.5 350.5L693 357L694 373L692 389.5L687.5 394L680 389.5L664.5 358.5L656.5 328L658 322.5L663 294.5L664.5 274.5L670 266.5L669 262L661.5 258L660 274.5L658 280.5L653 278H648.5L644.5 273.5L645.5 266.5L639 270L636.5 296H642L644.5 303L636.5 309L625 310.5L629 303L617.5 309L609 303L615 310.5L607.5 313.5L583 320L580 323.5L581 347.5L577 358.5V372L581 378.5L589.5 382.5V380.5L586 371L598 378.5L605 394L611.5 427.5L607 447.5L610 451V460.5L605 475L591.5 480.5L583 467L586 460.5L595 463V443.5L586 435L580 446.5L575 453L564.5 448.5L556.5 445.5H542L534.5 448.5L518 441.5L500.5 416L484 420L472 425L484 432.5L485.5 449.5C485 452.333 488 477 482 482.5C475.553 488.41 456 477.833 454 480.5L414 493H385.5L371.5 503.5H351.5L330 493L328 470C327.5 466.667 321.016 460.753 323 460.5C324.984 460.247 327 458.333 325 457L318 449.5L316 443.5L310 439.5ZM310 439.5L313.5 441.5M115.5 30.5L115.951 30.4155M115.951 30.4155L123.5 29V33L115.951 30.4155ZM92 485.5L85.5 489H93L98.5 493.5H103.5L105 483L92 485.5ZM21 420L33.5 422.5L36.5 418L33 414.5H23.5L21 420ZM138.5 228L136 239.5L140.5 250.5H148.5V257L156.5 260L161.5 255.5L154 245.5L152 234L145.5 228H138.5ZM141.5 207.5L136 203L145.5 189.5L150.5 194.5L159 176.5H165L169 167.5L183 162.5L181 176.5L165 189.5L154 210V223.5L148.5 226L145.5 223.5L136 216L141.5 207.5ZM605 377.5L609 382.5L615 395.5L615.5 383L610 378.5L605 377.5ZM615.5 400L615 409.5L625.5 401L620.5 396.5L615.5 400ZM624.5 406.5C622.5 408.833 618.5 413.6 618.5 414C618.5 414.4 618.5 425.833 618.5 431.5L622.5 437L634 447.5L630 426.5L632.5 430.5L634 424L627 409.5L624.5 406.5ZM280.5 108.5L292 88L301 80.5L313 85.5V103H292L280.5 108.5ZM280.5 91.5L290 76.5L301 67L290 51L275 55L269.5 69V85.5L280.5 91.5ZM259.5 60.5L254 57.5L259.5 38L270.5 24L278 31.5L280.5 43.5L272 48L259.5 60.5ZM128.5 29V33L133.5 35L128.5 29ZM136.5 22L133.5 29L139.5 31L136.5 22ZM137 35.5L139.5 40.5L148.5 35L137 35.5ZM126.5 38L133.5 40.5L132.5 38H126.5ZM115.5 40L118.5 44L120 38L115.5 40ZM123.5 44L126.5 49L132 48.5L123.5 44ZM135.5 47L136.5 53.5L142.5 48.5L135.5 47ZM146.5 44L150.5 48.5L154 40L146.5 44ZM501 85L506 92.5L516 90H519.5L520.5 79L508 85H501ZM465.5 90L458 94.5L449 107L454 116.5H466.5L467.5 110L484.5 106L494.5 110L493 96L484.5 92.5L465.5 90ZM482.5 117L476 128L486 130L497.5 126.5L482.5 117ZM633.5 118.5L643 124L658 119.5L653 115.5H638.5L633.5 118.5Z" stroke="#F73C57"/>
</g>
<defs>
<filter id="filter0_d" x="0.28418" y="0.594238" width="774.507" height="533.77" filterUnits="userSpaceOnUse" color-interpolation-filters="sRGB">
<feFlood flood-opacity="0" result="BackgroundImageFix"/>
<feColorMatrix in="SourceAlpha" type="matrix" values="0 0 0 0 0 0 0 0 0 0 0 0 0 0 0 0 0 0 127 0"/>
<feOffset/>
<feGaussianBlur stdDeviation="10"/>
<feColorMatrix type="matrix" values="0 0 0 0 0.968627 0 0 0 0 0.235294 0 0 0 0 0.341176 0 0 0 1 0"/>
<feBlend mode="normal" in2="BackgroundImageFix" result="effect1_dropShadow"/>
<feBlend mode="normal" in="SourceGraphic" in2="effect1_dropShadow" result="shape"/>
</filter>
</defs>
</svg>
