<svg width="1920" height="1494" viewBox="0 0 1920 1494" fill="none" xmlns="http://www.w3.org/2000/svg">
<g filter="url(#filter0_f)">
<path d="M201.752 132.039L-24.4957 193.894L-6.83191 317.471L98.9478 232.926L201.752 132.039Z" fill="#C1C1C1" fill-opacity="0.35"/>
</g>
<g filter="url(#filter1_f)">
<path d="M279.836 488.941L120.563 531.238L136.935 630.145L209.696 566.092L279.836 488.941Z" fill="#C1C1C1" fill-opacity="0.35"/>
</g>
<g filter="url(#filter2_f)">
<path d="M54.3318 814.715L76.4082 742.954L23.7387 635.999L54.3318 814.715Z" fill="#C5C5C5" fill-opacity="0.7"/>
</g>
<g filter="url(#filter3_f)">
<path d="M-49.8702 615.861L24.6153 607.565L89.7622 517.866L-49.8702 615.861Z" fill="#C5C5C5" fill-opacity="0.4"/>
</g>
<g opacity="0.7">
<g filter="url(#filter4_f)">
<ellipse cx="456.629" cy="174.155" rx="16.3718" ry="11.2108" transform="rotate(-5.56524 456.629 174.155)" fill="#31475B"/>
</g>
<g filter="url(#filter5_f)">
<ellipse cx="559.292" cy="870.124" rx="16.3718" ry="17.4151" transform="rotate(-5.56524 559.292 870.124)" fill="#31475B" fill-opacity="0.5"/>
</g>
<g filter="url(#filter6_f)">
<ellipse cx="1196" cy="347.595" rx="9.06576" ry="7.24222" transform="rotate(-5.56524 1196 347.595)" fill="#31475B"/>
</g>
<g filter="url(#filter7_f)">
<ellipse cx="646.258" cy="1240.08" rx="23.1216" ry="17.9753" transform="rotate(-5.56524 646.258 1240.08)" fill="#31475B" fill-opacity="0.4"/>
</g>
<g filter="url(#filter8_f)">
<ellipse cx="639.018" cy="1161.25" rx="23.1216" ry="17.9753" transform="rotate(-5.56524 639.018 1161.25)" fill="#31475B" fill-opacity="0.7"/>
</g>
<g filter="url(#filter9_f)">
<ellipse cx="1264.52" cy="930.659" rx="23.1216" ry="17.9753" transform="rotate(-5.56524 1264.52 930.659)" fill="#31475B"/>
</g>
<g filter="url(#filter10_f)">
<ellipse cx="1897.18" cy="703.542" rx="16.3419" ry="13.8242" transform="rotate(-5.56524 1897.18 703.542)" fill="#31475B" fill-opacity="0.7"/>
</g>
<g filter="url(#filter11_f)">
<ellipse cx="1201.41" cy="1147.16" rx="23.1216" ry="17.9753" transform="rotate(-5.56524 1201.41 1147.16)" fill="#31475B" fill-opacity="0.7"/>
</g>
<g filter="url(#filter12_f)">
<ellipse cx="1450" cy="241.749" rx="11.5608" ry="8.98765" transform="rotate(-5.56524 1450 241.749)" fill="#31475B"/>
</g>
<g filter="url(#filter13_f)">
<ellipse cx="1398.69" cy="119.763" rx="11.5608" ry="8.98765" transform="rotate(-5.56524 1398.69 119.763)" fill="#31475B"/>
</g>
<g filter="url(#filter14_f)">
<ellipse cx="511.944" cy="1147.15" rx="11.5608" ry="8.98765" transform="rotate(-5.56524 511.944 1147.15)" fill="#31475B" fill-opacity="0.2"/>
</g>
<g filter="url(#filter15_f)">
<ellipse cx="1150.44" cy="486.466" rx="15.1096" ry="12.0704" transform="rotate(-5.56524 1150.44 486.466)" fill="#31475B"/>
</g>
<g filter="url(#filter16_f)">
<ellipse cx="1126.42" cy="1057.84" rx="11.5608" ry="8.98765" transform="rotate(-5.56524 1126.42 1057.84)" fill="#31475B"/>
</g>
<g filter="url(#filter17_f)">
<ellipse cx="1018" cy="211.323" rx="11.5608" ry="8.98765" transform="rotate(-5.56524 1018 211.323)" fill="#31475B"/>
</g>
<g filter="url(#filter18_f)">
<ellipse cx="803.534" cy="1248.84" rx="7.70721" ry="5.99177" transform="rotate(-5.56524 803.534 1248.84)" fill="#31475B"/>
</g>
</g>
<g filter="url(#filter19_f)">
<path d="M5.43885 636.88C8.92405 636.984 11.6771 639.476 11.588 642.446C11.4988 645.415 8.60126 647.738 5.11606 647.633C1.63086 647.529 -1.1222 645.036 -1.03306 642.067C-0.943928 639.098 1.95365 636.775 5.43885 636.88Z" fill="#31475B" fill-opacity="0.4"/>
<path d="M30.6437 800.738C34.1289 800.843 36.882 803.335 36.7929 806.305C36.7037 809.274 33.8062 811.596 30.321 811.492C26.8358 811.387 24.0827 808.895 24.1718 805.926C24.261 802.956 27.1585 800.634 30.6437 800.738Z" fill="#31475B" fill-opacity="0.4"/>
<path d="M420.732 737.934C423.413 738.015 425.531 739.931 425.462 742.216C425.394 744.5 423.165 746.286 420.484 746.206C417.803 746.125 415.685 744.208 415.754 741.924C415.823 739.64 418.051 737.854 420.732 737.934Z" fill="#31475B" fill-opacity="0.4"/>
<path d="M417.206 353.669C420.691 353.773 423.444 356.265 423.355 359.235C423.266 362.204 420.368 364.527 416.883 364.422C413.398 364.317 410.644 361.825 410.734 358.856C410.823 355.886 413.72 353.564 417.206 353.669Z" fill="#31475B" fill-opacity="0.4"/>
<path d="M570.624 681.167C574.109 681.271 576.862 683.763 576.773 686.733C576.684 689.702 573.787 692.025 570.301 691.92C566.816 691.816 564.063 689.323 564.152 686.354C564.241 683.385 567.139 681.062 570.624 681.167Z" fill="#31475B" fill-opacity="0.4"/>
<path d="M699.068 756.224C701.749 756.305 703.867 758.222 703.798 760.506C703.73 762.79 701.501 764.576 698.82 764.496C696.139 764.415 694.021 762.499 694.09 760.214C694.158 757.93 696.387 756.144 699.068 756.224Z" fill="#31475B" fill-opacity="0.4"/>
<path d="M773.439 609.429C776.12 609.51 778.237 611.426 778.169 613.711C778.1 615.995 775.871 617.781 773.19 617.701C770.509 617.62 768.392 615.703 768.46 613.419C768.529 611.135 770.758 609.349 773.439 609.429Z" fill="#31475B" fill-opacity="0.4"/>
<path d="M710.095 421.243C712.776 421.324 714.893 423.241 714.825 425.525C714.756 427.809 712.527 429.596 709.847 429.515C707.166 429.435 705.048 427.518 705.116 425.234C705.185 422.949 707.414 421.163 710.095 421.243Z" fill="#31475B" fill-opacity="0.4"/>
<path d="M573.835 347.607C577.32 347.712 580.073 350.204 579.984 353.174C579.895 356.143 576.997 358.465 573.512 358.361C570.027 358.256 567.274 355.764 567.363 352.795C567.452 349.825 570.35 347.503 573.835 347.607Z" fill="#31475B" fill-opacity="0.4"/>
<path d="M443.034 529.137C446.519 529.242 449.272 531.734 449.183 534.703C449.094 537.673 446.196 539.995 442.711 539.891C439.226 539.786 436.472 537.294 436.562 534.325C436.651 531.355 439.548 529.033 443.034 529.137Z" fill="#31475B" fill-opacity="0.4"/>
<path d="M328.198 502.508C331.683 502.613 334.436 505.105 334.347 508.074C334.258 511.044 331.36 513.366 327.875 513.261C324.39 513.157 321.637 510.665 321.726 507.695C321.815 504.726 324.713 502.403 328.198 502.508Z" fill="#31475B" fill-opacity="0.4"/>
<path d="M294.819 222.494C298.304 222.599 301.057 225.091 300.968 228.06C300.879 231.03 297.981 233.352 294.496 233.247C291.011 233.143 288.258 230.651 288.347 227.681C288.436 224.712 291.334 222.389 294.819 222.494Z" fill="#31475B" fill-opacity="0.4"/>
<path d="M74.0041 424.504C77.4893 424.609 80.2424 427.101 80.1532 430.07C80.0641 433.04 77.1665 435.362 73.6813 435.258C70.1961 435.153 67.443 432.661 67.5322 429.691C67.6213 426.722 70.5189 424.4 74.0041 424.504Z" fill="#31475B" fill-opacity="0.4"/>
</g>
<g filter="url(#filter20_f)">
<path d="M514.625 959.099C512.312 959.059 510.471 957.111 510.513 954.749C510.554 952.387 512.462 950.505 514.775 950.545C517.087 950.586 518.929 952.534 518.887 954.896C518.846 957.258 516.938 959.14 514.625 959.099Z" fill="#31475B" fill-opacity="0.4"/>
<path d="M496.921 829.155C494.608 829.115 492.767 827.167 492.808 824.805C492.849 822.443 494.758 820.561 497.07 820.601C499.383 820.642 501.224 822.589 501.183 824.951C501.142 827.313 499.233 829.196 496.921 829.155Z" fill="#31475B" fill-opacity="0.4"/>
<path d="M238.521 883.875C236.742 883.843 235.325 882.345 235.357 880.528C235.389 878.711 236.857 877.263 238.636 877.294C240.415 877.326 241.831 878.824 241.799 880.641C241.768 882.458 240.3 883.906 238.521 883.875Z" fill="#31475B" fill-opacity="0.4"/>
<path d="M243.167 1189.36C240.854 1189.32 239.013 1187.37 239.054 1185.01C239.095 1182.65 241.003 1180.77 243.316 1180.81C245.629 1180.85 247.47 1182.8 247.429 1185.16C247.387 1187.52 245.479 1189.4 243.167 1189.36Z" fill="#31475B" fill-opacity="0.4"/>
<path d="M139.426 930.849C137.114 930.808 135.272 928.861 135.314 926.498C135.355 924.136 137.263 922.254 139.576 922.295C141.888 922.335 143.73 924.283 143.688 926.645C143.647 929.007 141.739 930.889 139.426 930.849Z" fill="#31475B" fill-opacity="0.4"/>
<path d="M53.7685 872.745C51.9895 872.714 50.5731 871.216 50.6049 869.399C50.6367 867.582 52.1046 866.134 53.8835 866.165C55.6625 866.196 57.0789 867.695 57.0471 869.512C57.0153 871.329 55.5474 872.776 53.7685 872.745Z" fill="#31475B" fill-opacity="0.4"/>
<path d="M5.31387 990.343C3.53491 990.312 2.11854 988.813 2.15032 986.996C2.1821 985.179 3.64999 983.732 5.42894 983.763C7.2079 983.794 8.62426 985.292 8.59249 987.109C8.56071 988.926 7.09282 990.374 5.31387 990.343Z" fill="#31475B" fill-opacity="0.4"/>
<path d="M48.4638 1139.23C46.6849 1139.19 45.2685 1137.7 45.3003 1135.88C45.3321 1134.06 46.7999 1132.61 48.5789 1132.65C50.3579 1132.68 51.7742 1134.17 51.7425 1135.99C51.7107 1137.81 50.2428 1139.26 48.4638 1139.23Z" fill="#31475B" fill-opacity="0.4"/>
<path d="M139.298 1196.1C136.985 1196.06 135.144 1194.11 135.185 1191.75C135.227 1189.39 137.135 1187.51 139.447 1187.55C141.76 1187.59 143.601 1189.54 143.56 1191.9C143.519 1194.26 141.611 1196.14 139.298 1196.1Z" fill="#31475B" fill-opacity="0.4"/>
<path d="M224.98 1050.13C222.667 1050.09 220.826 1048.14 220.867 1045.78C220.909 1043.42 222.817 1041.54 225.13 1041.58C227.442 1041.62 229.284 1043.57 229.242 1045.93C229.201 1048.29 227.293 1050.17 224.98 1050.13Z" fill="#31475B" fill-opacity="0.4"/>
<path d="M301.32 1069.9C299.007 1069.86 297.166 1067.91 297.207 1065.55C297.248 1063.18 299.157 1061.3 301.469 1061.34C303.782 1061.38 305.623 1063.33 305.582 1065.69C305.54 1068.05 303.632 1069.94 301.32 1069.9Z" fill="#31475B" fill-opacity="0.4"/>
<path d="M325.143 1292.16C322.83 1292.12 320.989 1290.17 321.03 1287.81C321.071 1285.45 322.98 1283.57 325.292 1283.61C327.605 1283.65 329.446 1285.59 329.405 1287.96C329.364 1290.32 327.455 1292.2 325.143 1292.16Z" fill="#31475B" fill-opacity="0.4"/>
<path d="M470.414 1128.83C468.102 1128.79 466.261 1126.84 466.302 1124.48C466.343 1122.12 468.251 1120.24 470.564 1120.28C472.877 1120.32 474.718 1122.27 474.677 1124.63C474.635 1126.99 472.727 1128.87 470.414 1128.83Z" fill="#31475B" fill-opacity="0.4"/>
</g>
<g filter="url(#filter21_f)">
<path d="M1332.23 661.511L1309.26 863.53L1385.02 888.242L1363.72 776.252L1332.23 661.511Z" fill="#C1C1C1" fill-opacity="0.35"/>
</g>
<g filter="url(#filter22_f)">
<path d="M1764.06 1050.67L1901.43 1271.16L2019.62 1218.86L1890.5 1133L1764.06 1050.67Z" fill="#C1C1C1" fill-opacity="0.35"/>
</g>
<g filter="url(#filter23_f)">
<path d="M1729 1221.84L1812.49 1304.33L1976.3 1317.49L1729 1221.84Z" fill="#C5C5C5" fill-opacity="0.7"/>
</g>
<g filter="url(#filter24_f)">
<path d="M108.398 1248.96L58.8736 1142.55L-90.086 1073.15L108.398 1248.96Z" fill="#C5C5C5" fill-opacity="0.4"/>
</g>
<defs>
<filter id="filter0_f" x="-64.086" y="102" width="319.477" height="234.471" filterUnits="userSpaceOnUse" color-interpolation-filters="sRGB">
<feFlood flood-opacity="0" result="BackgroundImageFix"/>
<feBlend mode="normal" in="SourceGraphic" in2="BackgroundImageFix" result="shape"/>
<feGaussianBlur stdDeviation="9.5" result="effect1_foregroundBlur"/>
</filter>
<filter id="filter1_f" x="87.1015" y="461.042" width="239.655" height="188.102" filterUnits="userSpaceOnUse" color-interpolation-filters="sRGB">
<feFlood flood-opacity="0" result="BackgroundImageFix"/>
<feBlend mode="normal" in="SourceGraphic" in2="BackgroundImageFix" result="shape"/>
<feGaussianBlur stdDeviation="9.5" result="effect1_foregroundBlur"/>
</filter>
<filter id="filter2_f" x="13.7387" y="626" width="72.6696" height="198.716" filterUnits="userSpaceOnUse" color-interpolation-filters="sRGB">
<feFlood flood-opacity="0" result="BackgroundImageFix"/>
<feBlend mode="normal" in="SourceGraphic" in2="BackgroundImageFix" result="shape"/>
<feGaussianBlur stdDeviation="5" result="effect1_foregroundBlur"/>
</filter>
<filter id="filter3_f" x="-57.8702" y="509.866" width="155.632" height="113.995" filterUnits="userSpaceOnUse" color-interpolation-filters="sRGB">
<feFlood flood-opacity="0" result="BackgroundImageFix"/>
<feBlend mode="normal" in="SourceGraphic" in2="BackgroundImageFix" result="shape"/>
<feGaussianBlur stdDeviation="4" result="effect1_foregroundBlur"/>
</filter>
<filter id="filter4_f" x="408.247" y="130.409" width="96.7638" height="87.4914" filterUnits="userSpaceOnUse" color-interpolation-filters="sRGB">
<feFlood flood-opacity="0" result="BackgroundImageFix"/>
<feBlend mode="normal" in="SourceGraphic" in2="BackgroundImageFix" result="shape"/>
<feGaussianBlur stdDeviation="15.5" result="effect1_foregroundBlur"/>
</filter>
<filter id="filter5_f" x="510.309" y="820.203" width="97.9671" height="99.8414" filterUnits="userSpaceOnUse" color-interpolation-filters="sRGB">
<feFlood flood-opacity="0" result="BackgroundImageFix"/>
<feBlend mode="normal" in="SourceGraphic" in2="BackgroundImageFix" result="shape"/>
<feGaussianBlur stdDeviation="15.5" result="effect1_foregroundBlur"/>
</filter>
<filter id="filter6_f" x="1163.28" y="316.508" width="65.4507" height="62.1745" filterUnits="userSpaceOnUse" color-interpolation-filters="sRGB">
<feFlood flood-opacity="0" result="BackgroundImageFix"/>
<feBlend mode="normal" in="SourceGraphic" in2="BackgroundImageFix" result="shape"/>
<feGaussianBlur stdDeviation="11.5" result="effect1_foregroundBlur"/>
</filter>
<filter id="filter7_f" x="601.502" y="1199.95" width="89.5118" height="80.2658" filterUnits="userSpaceOnUse" color-interpolation-filters="sRGB">
<feFlood flood-opacity="0" result="BackgroundImageFix"/>
<feBlend mode="normal" in="SourceGraphic" in2="BackgroundImageFix" result="shape"/>
<feGaussianBlur stdDeviation="10" result="effect1_foregroundBlur"/>
</filter>
<filter id="filter8_f" x="572.262" y="1099.12" width="133.512" height="124.266" filterUnits="userSpaceOnUse" color-interpolation-filters="sRGB">
<feFlood flood-opacity="0" result="BackgroundImageFix"/>
<feBlend mode="normal" in="SourceGraphic" in2="BackgroundImageFix" result="shape"/>
<feGaussianBlur stdDeviation="21" result="effect1_foregroundBlur"/>
</filter>
<filter id="filter9_f" x="1197.77" y="868.526" width="133.512" height="124.266" filterUnits="userSpaceOnUse" color-interpolation-filters="sRGB">
<feFlood flood-opacity="0" result="BackgroundImageFix"/>
<feBlend mode="normal" in="SourceGraphic" in2="BackgroundImageFix" result="shape"/>
<feGaussianBlur stdDeviation="21" result="effect1_foregroundBlur"/>
</filter>
<filter id="filter10_f" x="1861.58" y="670.198" width="71.211" height="66.6877" filterUnits="userSpaceOnUse" color-interpolation-filters="sRGB">
<feFlood flood-opacity="0" result="BackgroundImageFix"/>
<feBlend mode="normal" in="SourceGraphic" in2="BackgroundImageFix" result="shape"/>
<feGaussianBlur stdDeviation="9" result="effect1_foregroundBlur"/>
</filter>
<filter id="filter11_f" x="1142.65" y="1093.03" width="117.512" height="108.266" filterUnits="userSpaceOnUse" color-interpolation-filters="sRGB">
<feFlood flood-opacity="0" result="BackgroundImageFix"/>
<feBlend mode="normal" in="SourceGraphic" in2="BackgroundImageFix" result="shape"/>
<feGaussianBlur stdDeviation="17" result="effect1_foregroundBlur"/>
</filter>
<filter id="filter12_f" x="1404.63" y="198.682" width="90.7559" height="86.1329" filterUnits="userSpaceOnUse" color-interpolation-filters="sRGB">
<feFlood flood-opacity="0" result="BackgroundImageFix"/>
<feBlend mode="normal" in="SourceGraphic" in2="BackgroundImageFix" result="shape"/>
<feGaussianBlur stdDeviation="16.5" result="effect1_foregroundBlur"/>
</filter>
<filter id="filter13_f" x="1365.31" y="88.6965" width="66.7559" height="62.1329" filterUnits="userSpaceOnUse" color-interpolation-filters="sRGB">
<feFlood flood-opacity="0" result="BackgroundImageFix"/>
<feBlend mode="normal" in="SourceGraphic" in2="BackgroundImageFix" result="shape"/>
<feGaussianBlur stdDeviation="10.5" result="effect1_foregroundBlur"/>
</filter>
<filter id="filter14_f" x="480.566" y="1118.09" width="62.7559" height="58.1329" filterUnits="userSpaceOnUse" color-interpolation-filters="sRGB">
<feFlood flood-opacity="0" result="BackgroundImageFix"/>
<feBlend mode="normal" in="SourceGraphic" in2="BackgroundImageFix" result="shape"/>
<feGaussianBlur stdDeviation="9.5" result="effect1_foregroundBlur"/>
</filter>
<filter id="filter15_f" x="1102.23" y="440.988" width="96.4179" height="90.9576" filterUnits="userSpaceOnUse" color-interpolation-filters="sRGB">
<feFlood flood-opacity="0" result="BackgroundImageFix"/>
<feBlend mode="normal" in="SourceGraphic" in2="BackgroundImageFix" result="shape"/>
<feGaussianBlur stdDeviation="16" result="effect1_foregroundBlur"/>
</filter>
<filter id="filter16_f" x="1099.04" y="1032.77" width="54.7559" height="50.1329" filterUnits="userSpaceOnUse" color-interpolation-filters="sRGB">
<feFlood flood-opacity="0" result="BackgroundImageFix"/>
<feBlend mode="normal" in="SourceGraphic" in2="BackgroundImageFix" result="shape"/>
<feGaussianBlur stdDeviation="7.5" result="effect1_foregroundBlur"/>
</filter>
<filter id="filter17_f" x="976.62" y="172.256" width="82.7559" height="78.1329" filterUnits="userSpaceOnUse" color-interpolation-filters="sRGB">
<feFlood flood-opacity="0" result="BackgroundImageFix"/>
<feBlend mode="normal" in="SourceGraphic" in2="BackgroundImageFix" result="shape"/>
<feGaussianBlur stdDeviation="14.5" result="effect1_foregroundBlur"/>
</filter>
<filter id="filter18_f" x="785.282" y="1232.12" width="36.5039" height="33.4219" filterUnits="userSpaceOnUse" color-interpolation-filters="sRGB">
<feFlood flood-opacity="0" result="BackgroundImageFix"/>
<feBlend mode="normal" in="SourceGraphic" in2="BackgroundImageFix" result="shape"/>
<feGaussianBlur stdDeviation="5" result="effect1_foregroundBlur"/>
</filter>
<filter id="filter19_f" x="-15.1945" y="208.305" width="807.487" height="617.377" filterUnits="userSpaceOnUse" color-interpolation-filters="sRGB">
<feFlood flood-opacity="0" result="BackgroundImageFix"/>
<feBlend mode="normal" in="SourceGraphic" in2="BackgroundImageFix" result="shape"/>
<feGaussianBlur stdDeviation="7" result="effect1_foregroundBlur"/>
</filter>
<filter id="filter20_f" x="-11.9072" y="806.528" width="544.869" height="499.705" filterUnits="userSpaceOnUse" color-interpolation-filters="sRGB">
<feFlood flood-opacity="0" result="BackgroundImageFix"/>
<feBlend mode="normal" in="SourceGraphic" in2="BackgroundImageFix" result="shape"/>
<feGaussianBlur stdDeviation="7" result="effect1_foregroundBlur"/>
</filter>
<filter id="filter21_f" x="1288.81" y="641.946" width="132.342" height="265.296" filterUnits="userSpaceOnUse" color-interpolation-filters="sRGB">
<feFlood flood-opacity="0" result="BackgroundImageFix"/>
<feBlend mode="normal" in="SourceGraphic" in2="BackgroundImageFix" result="shape"/>
<feGaussianBlur stdDeviation="9.5" result="effect1_foregroundBlur"/>
</filter>
<filter id="filter22_f" x="1735.18" y="966.417" width="303.441" height="343.504" filterUnits="userSpaceOnUse" color-interpolation-filters="sRGB">
<feFlood flood-opacity="0" result="BackgroundImageFix"/>
<feBlend mode="normal" in="SourceGraphic" in2="BackgroundImageFix" result="shape"/>
<feGaussianBlur stdDeviation="9.5" result="effect1_foregroundBlur"/>
</filter>
<filter id="filter23_f" x="1719" y="1127.38" width="267.301" height="284.571" filterUnits="userSpaceOnUse" color-interpolation-filters="sRGB">
<feFlood flood-opacity="0" result="BackgroundImageFix"/>
<feBlend mode="normal" in="SourceGraphic" in2="BackgroundImageFix" result="shape"/>
<feGaussianBlur stdDeviation="5" result="effect1_foregroundBlur"/>
</filter>
<filter id="filter24_f" x="-98.086" y="1026" width="214.484" height="270.115" filterUnits="userSpaceOnUse" color-interpolation-filters="sRGB">
<feFlood flood-opacity="0" result="BackgroundImageFix"/>
<feBlend mode="normal" in="SourceGraphic" in2="BackgroundImageFix" result="shape"/>
<feGaussianBlur stdDeviation="4" result="effect1_foregroundBlur"/>
</filter>
</defs>
</svg>
